<?xml version="1.0" encoding="utf-8"?>
<!-- Generator: Adobe Illustrator 16.0.0, SVG Export Plug-In . SVG Version: 6.00 Build 0)  -->
<!DOCTYPE svg PUBLIC "-//W3C//DTD SVG 1.1//EN" "http://www.w3.org/Graphics/SVG/1.1/DTD/svg11.dtd">
<svg version="1.1" id="Layer_1" xmlns="http://www.w3.org/2000/svg" xmlns:xlink="http://www.w3.org/1999/xlink" x="0px" y="0px"
	 width="960px" height="560px" viewBox="0 0 960 560" enable-background="new 0 0 960 560" xml:space="preserve">
<g>
	<radialGradient id="SVGID_1_" cx="395.626" cy="255.2466" r="53.806" gradientUnits="userSpaceOnUse">
		<stop  offset="0" style="stop-color:#C6FFFF"/>
		<stop  offset="1" style="stop-color:#56D7FF"/>
	</radialGradient>
	<path fill-rule="evenodd" clip-rule="evenodd" fill="url(#SVGID_1_)" d="M461.875,276.903
		c-14.806-13.542-31.146-30.26-46.535-43.488c-24.014-20.642-66.453-22.807-85.963,5.731c8.04-11.761,38.516-9.642,49.725-6.363
		c14.79,4.327,32.799,16.475,44.471,26.483c1.96,1.681,22.261,19.094,38.303,33.413V276.903z"/>
	<g>
		<g>
			<radialGradient id="SVGID_2_" cx="390.5513" cy="322.8047" r="40.6796" gradientUnits="userSpaceOnUse">
				<stop  offset="0" style="stop-color:#C6FFFF"/>
				<stop  offset="1" style="stop-color:#56D7FF"/>
			</radialGradient>
			<path fill-rule="evenodd" clip-rule="evenodd" fill="url(#SVGID_2_)" d="M442.397,297.871
				c-3.518,3.442-10.048,7.908-13.41,11.484c0,0,0,0-0.109,9.099c-0.01,0.779-8.23-0.049-8.851,0.413
				c-14.543,10.838-32.656,18.588-48.667,18.588h-0.004c-11.38,0-22.328-2.76-32.651-8.572
				c13.23,12.459,29.124,18.854,47.351,18.854c4.812,0,9.868-0.387,15.03-1.236c13.021-2.139,24.342-11.565,33.649-20.175
				c2.574-2.379,5.125-5.826,7.662-8.291V297.871z"/>
			<radialGradient id="SVGID_3_" cx="541.1885" cy="233.1577" r="41.5222" gradientUnits="userSpaceOnUse">
				<stop  offset="0" style="stop-color:#C6FFFF"/>
				<stop  offset="1" style="stop-color:#56D7FF"/>
			</radialGradient>
			<path fill-rule="evenodd" clip-rule="evenodd" fill="url(#SVGID_3_)" d="M548.715,212.263c-4.811,0-9.867,0.431-15.031,1.282
				c-13.02,2.138-24.34,7.588-33.648,16.195c-4.639,4.287-9.215,10.762-13.725,15.252c6.045,1.676,9.52,4.84,13.996,9.061
				c0.158-0.166,2.32-2.332,2.477-2.498c17.75-18.881,39.281-29.278,60.627-29.278c11.381,0,22.334,2.94,32.656,8.753
				C582.836,218.568,566.943,212.263,548.715,212.263z"/>
			<linearGradient id="SVGID_4_" gradientUnits="userSpaceOnUse" x1="327.2847" y1="284.4727" x2="647.4468" y2="391.1937">
				<stop  offset="0.414" style="stop-color:#0B2F45"/>
				<stop  offset="1" style="stop-color:#082030"/>
			</linearGradient>
			<path fill="url(#SVGID_4_)" d="M304,317.526v-69.957h31.529c3.284,0,6.322,0.69,9.115,2.07c2.791,1.379,5.205,3.187,7.241,5.419
				c2.035,2.233,3.629,4.764,4.779,7.586c1.148,2.825,1.724,5.683,1.724,8.573c0,2.167-0.262,4.253-0.788,6.256
				c-0.526,2.005-1.28,3.893-2.266,5.666s-2.185,3.367-3.596,4.779c-1.415,1.413-3.005,2.61-4.778,3.596l16.06,26.012h-18.228
				l-14.091-22.563H320.16v22.563H304z M320.16,280.873h14.778c1.904,0,3.548-0.901,4.927-2.709c1.38-1.807,2.069-4.121,2.069-6.946
				c0-2.891-0.788-5.189-2.365-6.898c-1.576-1.707-3.285-2.561-5.122-2.561H320.16V280.873z"/>
			<linearGradient id="SVGID_5_" gradientUnits="userSpaceOnUse" x1="333.9229" y1="263.0576" x2="653.4157" y2="369.5555">
				<stop  offset="0.414" style="stop-color:#0B2F45"/>
				<stop  offset="1" style="stop-color:#082030"/>
			</linearGradient>
			<path fill="url(#SVGID_5_)" d="M378,247v70h49v-14h-33v-15h28v-13h-28v-14h28.453c-18.947-14,0,0-18.947-14H378z"/>
			<linearGradient id="SVGID_6_" gradientUnits="userSpaceOnUse" x1="341.3291" y1="183.4429" x2="662.2537" y2="290.418">
				<stop  offset="0.414" style="stop-color:#0B2F45"/>
				<stop  offset="1" style="stop-color:#082030"/>
			</linearGradient>
			<path fill="url(#SVGID_6_)" d="M600.232,247c0.729,1,1.455,1.293,2.156,2.025c3.582,3.744,6.449,7.975,8.613,11.975H618v56h16
				v-56h22v-14H600.232z"/>
			<radialGradient id="SVGID_7_" cx="470.1387" cy="276.8511" r="107.9367" gradientUnits="userSpaceOnUse">
				<stop  offset="0" style="stop-color:#C6FFFF"/>
				<stop  offset="1" style="stop-color:#56D7FF"/>
			</radialGradient>
			<path fill-rule="evenodd" clip-rule="evenodd" fill="url(#SVGID_7_)" d="M599.57,310.954c7.777-9.441,11.484-18.884,11.33-28.868
				c-0.17-10.973-2.248-22.709-10.123-30.938c-7.33-7.66-17.221-13.545-27.711-15.423c15.072,14.949,27.846,36.303,18.41,57.949
				c-8.9,20.417-34.848,29.009-55.746,27.413c-24.008-1.832-43.984-18.982-61.19-34.013c-20.264-17.704-38.799-36.119-59.206-53.66
				c-24.013-20.642-66.453-22.807-85.962,5.731c8.04-11.761,38.516-9.642,49.724-6.363c14.79,4.327,32.799,16.475,44.471,26.483
				c3.018,2.588,44.775,40.104,57.377,51.119C514.109,339.379,568.365,348.838,599.57,310.954z"/>
		</g>
		<g>
			<linearGradient id="SVGID_8_" gradientUnits="userSpaceOnUse" x1="596.2402" y1="216.0796" x2="257.5331" y2="389.0626">
				<stop  offset="0.4462" style="stop-color:#092739"/>
				<stop  offset="0.586" style="stop-color:#0B2F45"/>
			</linearGradient>
			<path fill="url(#SVGID_8_)" d="M498.475,287.999c-2.297-2.974-5.418-5.044-9.361-6.21c3.299-1.486,5.773-3.685,7.422-6.596
				c1.65-2.91,2.473-6.014,2.473-9.312c0-2.199-0.371-4.35-1.115-6.451c-0.744-2.101-1.795-3.978-3.152-5.626
				s-3.006-2.991-4.947-4.026c-1.939-1.034-4.107-1.552-6.498-1.552h-38.317v8.249c15.909,14.556,15.521,14.345,15.909,14.556
				v-9.225h16.2c1.679,0,3.118,0.615,4.315,1.843c1.195,1.229,1.793,2.975,1.793,5.238c0,2.458-0.678,4.268-2.037,5.433
				c-1.355,1.164-2.908,1.746-4.654,1.746h-10.09c2.499,2.611,12.114,10.612,13.985,12.513h-0.179c1.875,0,2.426,0.745,3.656,2.231
				c1.225,1.489,1.844,3.298,1.844,5.433c0,2.199-0.682,3.978-2.037,5.335c-1.359,1.358-3.073,2.037-5.142,2.037h-17.655v-7.363
				c-2.012-1.44-12.539-11.068-15.909-14.245V317.1h33.564c3.167,0,6.175-0.371,9.021-1.115c2.846-0.742,5.336-1.843,7.469-3.298
				c2.135-1.455,3.816-3.282,5.043-5.48c1.229-2.198,1.844-4.786,1.844-7.761C501.918,294.789,500.77,290.975,498.475,287.999z"/>
		</g>
		<g>
			<g>
				<g>
					<g>
						<g>
							<defs>
								<path id="SVGID_9_" d="M584.146,255.947c0,0-51.932-11-79.652,0.052c0,0,2.848,57.737,36.682,60.995
									C577.453,320.482,584.146,255.947,584.146,255.947z"/>
							</defs>
							<clipPath id="SVGID_10_">
								<use xlink:href="#SVGID_9_"  overflow="visible"/>
							</clipPath>
							<polygon clip-path="url(#SVGID_10_)" fill="#B6DEFF" points="496.102,256.648 578.998,229.789 595.688,314.574 
								512.793,341.434 							"/>
							<path clip-path="url(#SVGID_10_)" fill="#B6DEFF" d="M531.094,328.307c22.102,1.532,40.629-23.555,41.387-56.035
								c0.381-16.242-3.756-31.256-10.746-42.401l0.805,4.092l-67.465,21.862l10.35,52.577l-2.225,0.721
								C510.195,320.264,520.043,327.541,531.094,328.307z"/>
							<path clip-path="url(#SVGID_10_)" fill="#B6DDFF" d="M531.098,328.158c22.043,1.529,40.527-23.496,41.281-55.895
								c0.379-16.2-3.748-31.176-10.721-42.292l0.793,4.02l-67.377,21.833l10.336,52.502l-2.137,0.692
								C510.25,320.135,520.076,327.395,531.098,328.158z"/>
							<path clip-path="url(#SVGID_10_)" fill="#B6DCFF" d="M531.102,328.01c21.988,1.525,40.424-23.437,41.18-55.754
								c0.373-16.157-3.738-31.094-10.697-42.183l0.777,3.948l-67.287,21.803l10.322,52.43l-2.047,0.664
								C510.307,320.006,520.105,327.248,531.102,328.01z"/>
							<path clip-path="url(#SVGID_10_)" fill="#B6DBFF" d="M531.105,327.859c21.932,1.521,40.32-23.375,41.074-55.61
								c0.375-16.115-3.729-31.017-10.67-42.076l0.762,3.875l-67.197,21.775l10.307,52.36l-1.959,0.635
								C510.363,319.878,520.139,327.1,531.105,327.859z"/>
							<path clip-path="url(#SVGID_10_)" fill="#B6DAFF" d="M531.109,327.71c21.875,1.519,40.217-23.317,40.967-55.47
								c0.375-16.074-3.719-30.935-10.641-41.967l0.75,3.805l-67.111,21.746l10.293,52.286l-1.869,0.607
								C510.42,319.749,520.17,326.951,531.109,327.71z"/>
							<path clip-path="url(#SVGID_10_)" fill="#B6D9FF" d="M531.111,327.559c21.82,1.516,40.113-23.253,40.861-55.324
								c0.375-16.033-3.705-30.857-10.611-41.861l0.734,3.732l-67.021,21.718l10.281,52.215l-1.783,0.576
								C510.477,319.619,520.201,326.804,531.111,327.559z"/>
							<path clip-path="url(#SVGID_10_)" fill="#B6D8FF" d="M531.115,327.412c21.762,1.508,40.012-23.198,40.758-55.183
								c0.373-15.992-3.697-30.779-10.586-41.755l0.719,3.661l-66.932,21.689l10.264,52.143l-1.691,0.547
								C510.535,319.492,520.234,326.656,531.115,327.412z"/>
							<path clip-path="url(#SVGID_10_)" fill="#B6D7FF" d="M531.119,327.26c21.705,1.508,39.906-23.135,40.652-55.039
								c0.373-15.951-3.689-30.699-10.559-41.646l0.707,3.588l-66.846,21.661l10.252,52.069l-1.604,0.521
								C510.59,319.361,520.268,326.51,531.119,327.26z"/>
							<path clip-path="url(#SVGID_10_)" fill="#B6D6FF" d="M531.121,327.111c21.654,1.504,39.805-23.076,40.549-54.897
								c0.369-15.911-3.68-30.619-10.531-41.538l0.693,3.516l-66.758,21.631l10.238,51.999l-1.518,0.49
								C510.646,319.23,520.299,326.361,531.121,327.111z"/>
							<path clip-path="url(#SVGID_10_)" fill="#B6D5FF" d="M531.125,326.963c21.596,1.498,39.701-23.018,40.443-54.756
								c0.371-15.869-3.672-30.54-10.504-41.43l0.678,3.443l-66.668,21.604l10.225,51.925l-1.428,0.464
								C510.705,319.102,520.328,326.215,531.125,326.963z"/>
							<path clip-path="url(#SVGID_10_)" fill="#B6D4FF" d="M531.131,326.814c21.535,1.492,39.596-22.959,40.336-54.614
								c0.369-15.829-3.662-30.461-10.479-41.323l0.662,3.372l-66.576,21.574l10.209,51.854l-1.338,0.434
								C510.762,318.975,520.359,326.066,531.131,326.814z"/>
							<path clip-path="url(#SVGID_10_)" fill="#B6D3FF" d="M531.133,326.665c21.48,1.489,39.494-22.898,40.232-54.472
								c0.367-15.785-3.652-30.382-10.451-41.215l0.65,3.299l-66.49,21.546l10.193,51.782l-1.248,0.407
								C510.818,318.846,520.391,325.918,531.133,326.665z"/>
							<path clip-path="url(#SVGID_10_)" fill="#B6D2FF" d="M531.137,326.515c21.426,1.487,39.391-22.836,40.123-54.328
								c0.369-15.745-3.639-30.303-10.42-41.108l0.637,3.228l-66.402,21.517l10.18,51.709l-1.16,0.379
								C510.873,318.717,520.422,325.77,531.137,326.515z"/>
							<path clip-path="url(#SVGID_10_)" fill="#B6D1FF" d="M531.141,326.365c21.369,1.482,39.287-22.777,40.021-54.186
								c0.365-15.704-3.635-30.223-10.396-41l0.623,3.156l-66.314,21.488l10.166,51.637l-1.072,0.35
								C510.932,318.588,520.457,325.623,531.141,326.365z"/>
							<path clip-path="url(#SVGID_10_)" fill="#B6D0FF" d="M531.145,326.215c21.313,1.479,39.182-22.717,39.914-54.043
								c0.365-15.663-3.625-30.142-10.369-40.89l0.609,3.084l-66.225,21.458l10.152,51.567l-0.984,0.319
								C510.986,318.459,520.488,325.475,531.145,326.215z"/>
							<path clip-path="url(#SVGID_10_)" fill="#B6CFFF" d="M531.146,326.066c21.256,1.473,39.08-22.658,39.811-53.901
								c0.365-15.622-3.615-30.064-10.338-40.785l0.592,3.012l-66.119,21.423l-0.066-0.338c-0.598,3.647-0.959,7.441-1.049,11.347
								l3.07-0.995l8.164,41.488l-0.895,0.291C511.045,318.33,520.518,325.329,531.146,326.066z"/>
							<path clip-path="url(#SVGID_10_)" fill="#B6CEFF" d="M531.15,325.916c21.201,1.473,38.977-22.596,39.705-53.757
								c0.365-15.582-3.604-29.985-10.313-40.675l0.578,2.938l-65.943,21.368l-0.053-0.274c-0.6,3.638-0.957,7.422-1.045,11.316
								l2.973-0.962l8.146,41.377l-0.809,0.264C511.098,318.201,520.549,325.182,531.15,325.916z"/>
							<path clip-path="url(#SVGID_10_)" fill="#B6CDFF" d="M531.154,325.768c21.145,1.467,38.877-22.538,39.6-53.617
								c0.363-15.54-3.594-29.904-10.283-40.568l0.563,2.869l-65.77,21.311l-0.041-0.209c-0.594,3.627-0.953,7.403-1.043,11.287
								l2.881-0.934l8.123,41.269l-0.719,0.232C511.156,318.07,520.584,325.033,531.154,325.768z"/>
							<path clip-path="url(#SVGID_10_)" fill="#B6CCFF" d="M531.158,325.619c21.088,1.461,38.771-22.48,39.494-53.476
								c0.359-15.498-3.586-29.825-10.256-40.461l0.549,2.797l-65.596,21.253l-0.027-0.145c-0.594,3.619-0.949,7.383-1.041,11.259
								l2.787-0.903l8.102,41.16l-0.629,0.202C511.213,317.941,520.613,324.887,531.158,325.619z"/>
							<path clip-path="url(#SVGID_10_)" fill="#B6CBFF" d="M531.16,325.469c21.033,1.457,38.668-22.418,39.391-53.332
								c0.361-15.457-3.574-29.747-10.229-40.353l0.533,2.724l-65.42,21.198l-0.016-0.081c-0.592,3.609-0.947,7.363-1.035,11.228
								l2.689-0.873l8.082,41.051l-0.543,0.174C511.27,317.813,520.645,324.738,531.16,325.469z"/>
							<path clip-path="url(#SVGID_10_)" fill="#B6CAFF" d="M531.164,325.319c20.975,1.455,38.566-22.358,39.285-53.19
								c0.359-15.415-3.566-29.666-10.205-40.244l0.523,2.651l-65.244,21.139l-0.004-0.013c-0.59,3.598-0.943,7.342-1.033,11.197
								l2.596-0.842l8.057,40.94l-0.451,0.147C511.326,317.686,520.676,324.592,531.164,325.319z"/>
							<path clip-path="url(#SVGID_10_)" fill="#B6C9FF" d="M531.166,325.17c20.92,1.449,38.463-22.3,39.182-53.047
								c0.357-15.375-3.557-29.587-10.176-40.138l0.506,2.58l-63.1,20.445l-0.902-4.582c-0.41,1.719-0.762,3.477-1.057,5.271
								c-0.59,3.589-0.943,7.323-1.031,11.168l2.502-0.812l8.035,40.831l-0.361,0.115
								C511.385,317.555,520.709,324.443,531.166,325.17z"/>
							<path clip-path="url(#SVGID_10_)" fill="#B6C8FF" d="M531.17,325.02c20.867,1.447,38.359-22.238,39.076-52.903
								c0.359-15.334-3.547-29.509-10.15-40.031l0.494,2.509l-62.93,20.39l-0.887-4.504c-0.408,1.713-0.764,3.468-1.057,5.256
								c-0.588,3.58-0.938,7.304-1.029,11.136l2.408-0.779l8.02,40.721l-0.275,0.09C511.438,317.426,520.74,324.295,531.17,325.02z"
								/>
							<path clip-path="url(#SVGID_10_)" fill="#B6C7FF" d="M531.176,324.871c20.807,1.443,38.254-22.18,38.967-52.764
								c0.357-15.291-3.537-29.427-10.119-39.92l0.479,2.436l-62.762,20.335l-0.869-4.426c-0.408,1.708-0.76,3.458-1.055,5.242
								c-0.586,3.57-0.938,7.284-1.025,11.108l2.314-0.751l7.994,40.611l-0.188,0.059
								C511.498,317.297,520.77,324.148,531.176,324.871z"/>
							<path clip-path="url(#SVGID_10_)" fill="#B6C6FF" d="M531.18,324.721c20.752,1.439,38.15-22.119,38.865-52.617
								c0.354-15.252-3.529-29.351-10.098-39.817l0.465,2.364l-62.592,20.28l-0.854-4.349c-0.408,1.706-0.76,3.449-1.053,5.229
								c-0.582,3.561-0.934,7.263-1.021,11.077l2.219-0.72l7.975,40.503l-0.102,0.032
								C511.553,317.17,520.801,324.002,531.18,324.721z"/>
							<path clip-path="url(#SVGID_10_)" fill="#B6C5FF" d="M531.184,324.57c20.695,1.438,38.047-22.058,38.758-52.476
								c0.354-15.209-3.518-29.269-10.066-39.707l0.449,2.292l-62.422,20.228l-0.84-4.271c-0.408,1.698-0.756,3.436-1.049,5.212
								c-0.582,3.55-0.932,7.246-1.021,11.047l2.125-0.688l7.955,40.391l-0.012,0.006
								C511.609,317.039,520.836,323.854,531.184,324.57z"/>
							<path clip-path="url(#SVGID_10_)" fill="#B6C4FF" d="M531.186,324.422c20.641,1.433,37.945-22,38.652-52.334
								c0.355-15.168-3.508-29.19-10.039-39.599l0.438,2.22l-62.252,20.172l-0.826-4.195c-0.404,1.696-0.756,3.43-1.045,5.2
								c-0.582,3.542-0.928,7.225-1.018,11.018c-0.354,15.168,3.508,29.189,10.041,39.6
								C511.668,316.91,520.865,323.707,531.186,324.422z"/>
							<path clip-path="url(#SVGID_10_)" fill="#B6C3FF" d="M531.189,324.271c20.582,1.43,37.842-21.938,38.549-52.191
								c0.35-15.127-3.502-29.11-10.012-39.491l0.422,2.148l-62.084,20.116l-0.813-4.117c-0.402,1.69-0.748,3.42-1.039,5.187
								c-0.58,3.532-0.928,7.205-1.016,10.986c-0.354,15.128,3.498,29.111,10.012,39.492
								C511.723,316.779,520.896,323.558,531.189,324.271z"/>
							<path clip-path="url(#SVGID_10_)" fill="#B6C2FF" d="M531.193,324.123c20.525,1.423,37.738-21.879,38.441-52.049
								c0.352-15.087-3.488-29.032-9.984-39.384l0.408,2.074l-61.916,20.063l-0.795-4.041c-0.402,1.685-0.748,3.411-1.037,5.173
								c-0.578,3.521-0.926,7.184-1.014,10.957c-0.352,15.084,3.492,29.028,9.986,39.382
								C511.779,316.652,520.928,323.41,531.193,324.123z"/>
							<path clip-path="url(#SVGID_10_)" fill="#B6C1FF" d="M531.195,323.974c20.471,1.422,37.637-21.821,38.34-51.909
								c0.35-15.043-3.482-28.951-9.959-39.273l0.396,2.002l-61.746,20.007l-0.781-3.962c-0.4,1.68-0.748,3.401-1.035,5.157
								c-0.574,3.514-0.922,7.167-1.01,10.928c-0.35,15.043,3.479,28.951,9.957,39.275
								C511.836,316.522,520.959,323.266,531.195,323.974z"/>
							<path clip-path="url(#SVGID_10_)" fill="#B6C0FF" d="M531.197,323.825c20.418,1.415,37.533-21.763,38.234-51.766
								c0.35-15.003-3.469-28.873-9.93-39.168l0.381,1.931l-61.576,19.953l-0.766-3.885c-0.4,1.677-0.744,3.392-1.031,5.144
								c-0.574,3.501-0.918,7.145-1.008,10.896c-0.35,15.001,3.471,28.871,9.932,39.167
								C511.893,316.394,520.992,323.115,531.197,323.825z"/>
							<path clip-path="url(#SVGID_10_)" fill="#B6BFFF" d="M531.201,323.674c20.361,1.413,37.432-21.697,38.129-51.621
								c0.35-14.962-3.461-28.794-9.9-39.06l0.363,1.859l-61.406,19.897l-0.75-3.808c-0.398,1.671-0.742,3.383-1.027,5.127
								c-0.576,3.493-0.918,7.128-1.006,10.868c-0.35,14.961,3.463,28.792,9.904,39.061
								C511.949,316.266,521.023,322.969,531.201,323.674z"/>
							<path clip-path="url(#SVGID_10_)" fill="#B6BEFF" d="M531.205,323.525c20.305,1.408,37.328-21.639,38.023-51.481
								c0.35-14.918-3.451-28.713-9.877-38.951l0.354,1.787l-61.238,19.842l-0.732-3.73c-0.398,1.666-0.74,3.373-1.029,5.114
								c-0.57,3.483-0.912,7.107-1,10.838c-0.348,14.92,3.451,28.711,9.875,38.951C512.006,316.137,521.055,322.821,531.205,323.525
								z"/>
							<path clip-path="url(#SVGID_10_)" fill="#B6BDFF" d="M531.209,323.375c20.248,1.405,37.225-21.578,37.92-51.337
								c0.346-14.878-3.443-28.633-9.85-38.844l0.34,1.717l-61.07,19.786l-0.717-3.653c-0.398,1.662-0.742,3.365-1.025,5.102
								c-0.572,3.474-0.912,7.088-1,10.806c-0.348,14.881,3.441,28.635,9.848,38.846
								C512.063,316.008,521.086,322.672,531.209,323.375z"/>
							<path clip-path="url(#SVGID_10_)" fill="#B6BBFF" d="M531.213,323.227c20.191,1.4,37.121-21.521,37.813-51.196
								c0.348-14.836-3.432-28.553-9.822-38.736l0.324,1.645l-60.898,19.73l-0.703-3.574c-0.395,1.658-0.736,3.354-1.023,5.087
								c-0.566,3.464-0.906,7.066-0.992,10.776c-0.348,14.839,3.432,28.556,9.82,38.736
								C512.117,315.877,521.119,322.527,531.213,323.227z"/>
							<path clip-path="url(#SVGID_10_)" fill="#B6BAFF" d="M531.217,323.077c20.135,1.397,37.018-21.46,37.705-51.053
								c0.348-14.797-3.422-28.474-9.791-38.628l0.309,1.571l-60.729,19.677l-0.689-3.5c-0.395,1.654-0.734,3.348-1.018,5.073
								c-0.568,3.457-0.906,7.049-0.994,10.749c-0.344,14.797,3.424,28.474,9.795,38.628S521.15,322.379,531.217,323.077z"/>
							<path clip-path="url(#SVGID_10_)" fill="#B6B9FF" d="M531.221,322.928c20.078,1.393,36.912-21.401,37.602-50.912
								c0.344-14.754-3.412-28.395-9.768-38.52l0.297,1.5l-58.41,18.924l-1.486-7.548c-1.986,6.265-3.168,13.222-3.342,20.6
								c-0.344,14.755,3.412,28.395,9.764,38.522C512.23,315.619,521.182,322.23,531.221,322.928z"/>
							<path clip-path="url(#SVGID_10_)" fill="#B6B8FF" d="M531.225,322.779c20.02,1.389,36.809-21.344,37.496-50.769
								c0.344-14.715-3.404-28.317-9.738-38.414l0.279,1.428l-58.246,18.873l-1.469-7.461c-1.984,6.248-3.162,13.186-3.334,20.544
								c-0.342,14.713,3.404,28.314,9.74,38.411C512.289,315.49,521.213,322.083,531.225,322.779z"/>
							<path clip-path="url(#SVGID_10_)" fill="#B6B7FF" d="M531.229,322.626c19.963,1.388,36.703-21.28,37.389-50.622
								c0.344-14.673-3.393-28.237-9.709-38.307l0.266,1.357l-58.084,18.818l-1.449-7.371c-1.977,6.231-3.152,13.149-3.326,20.485
								c-0.34,14.673,3.395,28.238,9.713,38.308C512.346,315.362,521.244,321.934,531.229,322.626z"/>
							<path clip-path="url(#SVGID_10_)" fill="#B6B6FF" d="M531.232,322.479c19.908,1.381,36.602-21.222,37.285-50.482
								c0.342-14.632-3.385-28.158-9.684-38.2l0.252,1.287l-57.92,18.766l-1.434-7.281c-1.973,6.211-3.145,13.11-3.313,20.427
								c-0.346,14.631,3.383,28.156,9.684,38.199C512.402,315.232,521.275,321.788,531.232,322.479z"/>
							<path clip-path="url(#SVGID_10_)" fill="#B6B5FF" d="M531.234,322.33c19.854,1.378,36.5-21.16,37.182-50.34
								c0.34-14.591-3.377-28.08-9.656-38.092l0.238,1.213l-57.758,18.713l-1.418-7.193c-1.965,6.195-3.131,13.076-3.303,20.37
								c-0.342,14.589,3.375,28.076,9.656,38.091C512.459,315.104,521.307,321.641,531.234,322.33z"/>
							<path clip-path="url(#SVGID_10_)" fill="#B6B4FF" d="M531.236,322.18c19.797,1.375,36.398-21.102,37.078-50.199
								c0.338-14.548-3.365-27.998-9.629-37.981l0.223,1.138l-57.592,18.664l-1.398-7.105c-1.965,6.178-3.127,13.037-3.299,20.314
								c-0.338,14.545,3.367,27.995,9.631,37.98C512.514,314.974,521.338,321.492,531.236,322.18z"/>
							<path clip-path="url(#SVGID_10_)" fill="#B6B3FF" d="M531.242,322.031c19.738,1.368,36.295-21.042,36.967-50.056
								c0.342-14.507-3.354-27.92-9.6-37.874l0.209,1.066l-57.43,18.608l-1.381-7.014c-1.953,6.158-3.115,12.999-3.285,20.255
								c-0.338,14.507,3.357,27.918,9.602,37.874C512.57,314.846,521.371,321.346,531.242,322.031z"/>
							<path clip-path="url(#SVGID_10_)" fill="#B6B2FF" d="M531.246,321.883c19.682,1.364,36.188-20.983,36.863-49.914
								c0.34-14.468-3.344-27.841-9.574-37.77l0.197,0.996l-57.268,18.556l-1.363-6.927c-1.949,6.143-3.109,12.967-3.275,20.197
								c-0.338,14.466,3.344,27.84,9.572,37.768C512.629,314.717,521.402,321.198,531.246,321.883z"/>
							<path clip-path="url(#SVGID_10_)" fill="#B6B1FF" d="M531.248,321.732c19.629,1.361,36.088-20.923,36.76-49.772
								c0.34-14.423-3.334-27.76-9.549-37.658l0.182,0.922l-57.102,18.503l-1.344-6.837c-1.945,6.125-3.102,12.927-3.268,20.139
								c-0.338,14.424,3.336,27.76,9.547,37.661C512.686,314.586,521.436,321.051,531.248,321.732z"/>
							<path clip-path="url(#SVGID_10_)" fill="#B6B0FF" d="M531.25,321.583c19.576,1.356,35.986-20.863,36.658-49.63
								c0.336-14.384-3.328-27.681-9.521-37.551l0.166,0.852l-56.939,18.45l-1.328-6.749c-1.938,6.107-3.088,12.89-3.258,20.082
								c-0.336,14.382,3.328,27.679,9.52,37.55C512.74,314.457,521.467,320.904,531.25,321.583z"/>
							<path clip-path="url(#SVGID_10_)" fill="#B6AFFF" d="M531.256,321.434c19.516,1.354,35.879-20.803,36.549-49.488
								c0.336-14.342-3.316-27.601-9.494-37.442l0.156,0.779l-56.777,18.398l-1.311-6.662c-1.932,6.089-3.082,12.852-3.252,20.025
								c-0.332,14.341,3.32,27.601,9.498,37.443C512.799,314.33,521.498,320.757,531.256,321.434z"/>
							<path clip-path="url(#SVGID_10_)" fill="#B6AEFF" d="M531.258,321.282c19.463,1.351,35.777-20.741,36.447-49.341
								c0.332-14.302-3.309-27.525-9.467-37.337l0.139,0.708l-56.611,18.343l-1.295-6.572c-1.928,6.073-3.074,12.817-3.238,19.968
								c-0.334,14.3,3.307,27.521,9.463,37.334C512.855,314.201,521.527,320.609,531.258,321.282z"/>
							<path clip-path="url(#SVGID_10_)" fill="#B6ADFF" d="M531.264,321.134c19.402,1.347,35.674-20.682,36.34-49.202
								c0.334-14.26-3.301-27.441-9.441-37.226l0.125,0.634l-56.449,18.291l-1.273-6.481c-1.924,6.054-3.064,12.778-3.232,19.908
								c-0.332,14.261,3.299,27.442,9.438,37.228C512.91,314.071,521.561,320.461,531.264,321.134z"/>
							<path clip-path="url(#SVGID_10_)" fill="#B6ACFF" d="M531.266,320.984c19.348,1.342,35.57-20.623,36.234-49.059
								c0.332-14.218-3.287-27.364-9.41-37.121l0.109,0.564l-56.287,18.238l-1.256-6.394c-1.918,6.036-3.057,12.743-3.221,19.852
								c-0.332,14.218,3.287,27.363,9.41,37.121C512.967,313.942,521.59,320.313,531.266,320.984z"/>
							<path clip-path="url(#SVGID_10_)" fill="#B6ABFF" d="M531.27,320.835c19.291,1.339,35.467-20.563,36.129-48.917
								c0.332-14.177-3.279-27.283-9.385-37.013l0.098,0.492l-56.123,18.185l-1.24-6.303c-1.912,6.019-3.045,12.705-3.213,19.792
								C496.875,295.426,511.977,319.497,531.27,320.835z"/>
							<path clip-path="url(#SVGID_10_)" fill="#B6AAFF" d="M531.273,320.686c19.234,1.335,35.363-20.502,36.025-48.775
								c0.328-14.135-3.273-27.204-9.359-36.905l0.084,0.42l-55.959,18.131l-1.225-6.215c-1.906,6.001-3.037,12.668-3.199,19.736
								C496.975,295.35,512.035,319.351,531.273,320.686z"/>
							<path clip-path="url(#SVGID_10_)" fill="#B6A9FF" d="M531.275,320.537c19.182,1.328,35.262-20.444,35.922-48.632
								c0.326-14.095-3.262-27.126-9.332-36.798l0.068,0.348l-55.793,18.079l-1.209-6.126c-1.9,5.986-3.027,12.631-3.193,19.679
								C497.082,295.273,512.096,319.205,531.275,320.537z"/>
							<path clip-path="url(#SVGID_10_)" fill="#B6A8FF" d="M531.279,320.387c19.123,1.324,35.156-20.384,35.813-48.489
								c0.328-14.055-3.252-27.046-9.299-36.69l0.051,0.275l-55.629,18.026l-1.189-6.038c-1.895,5.967-3.02,12.594-3.186,19.621
								C497.184,295.199,512.156,319.061,531.279,320.387z"/>
							<path clip-path="url(#SVGID_10_)" fill="#B6A7FF" d="M531.283,320.238c19.066,1.322,35.055-20.324,35.707-48.349
								c0.33-14.012-3.24-26.965-9.273-36.582l0.041,0.204l-55.471,17.973l-1.17-5.948c-1.891,5.949-3.01,12.557-3.176,19.564
								C497.289,295.124,512.217,318.913,531.283,320.238z"/>
							<path clip-path="url(#SVGID_10_)" fill="#B6A6FF" d="M531.287,320.088c19.01,1.318,34.951-20.263,35.604-48.207
								c0.324-13.97-3.23-26.885-9.246-36.473l0.025,0.131l-55.305,17.921l-1.158-5.86c-1.881,5.932-3,12.52-3.162,19.506
								C497.393,295.049,512.275,318.77,531.287,320.088z"/>
							<path clip-path="url(#SVGID_10_)" fill="#B6A5FF" d="M531.291,319.938c18.953,1.314,34.848-20.202,35.498-48.062
								c0.324-13.929-3.223-26.807-9.223-36.365l0.014,0.059l-55.143,17.866l-1.135-5.77c-1.881,5.914-2.994,12.483-3.154,19.448
								C497.496,294.974,512.334,318.623,531.291,319.938z"/>
							<path clip-path="url(#SVGID_10_)" fill="#B6A4FF" d="M531.293,319.789c18.9,1.31,34.746-20.144,35.395-47.921
								c0.324-13.886-3.213-26.727-9.193-36.258c-1.496-2.382-3.145-4.558-4.92-6.493l1.492,7.592l-51.555,16.704l-1.119-5.682
								c-1.871,5.897-2.982,12.448-3.145,19.391C497.6,294.896,512.395,318.478,531.293,319.789z"/>
							<path clip-path="url(#SVGID_10_)" fill="#B6A3FF" d="M531.297,319.638c18.844,1.31,34.641-20.081,35.287-47.776
								c0.322-13.847-3.199-26.648-9.164-36.151c-1.49-2.375-3.135-4.544-4.908-6.472l1.475,7.496l-51.398,16.655l-1.104-5.592
								c-1.865,5.879-2.973,12.409-3.135,19.331C497.705,294.819,512.453,318.332,531.297,319.638z"/>
							<path clip-path="url(#SVGID_10_)" fill="#B6A2FF" d="M531.303,319.49c18.783,1.302,34.537-20.023,35.18-47.636
								c0.324-13.807-3.191-26.569-9.139-36.042c-1.486-2.37-3.123-4.533-4.891-6.455l1.457,7.401l-51.248,16.606l-1.084-5.505
								c-1.861,5.862-2.967,12.372-3.127,19.276C497.805,294.744,512.514,318.187,531.303,319.49z"/>
							<path clip-path="url(#SVGID_10_)" fill="#B6A1FF" d="M531.305,319.34c18.732,1.3,34.434-19.963,35.078-47.492
								c0.32-13.765-3.184-26.489-9.111-35.935c-1.482-2.363-3.115-4.519-4.879-6.436l1.439,7.307l-51.096,16.556l-1.066-5.415
								c-1.855,5.844-2.957,12.334-3.117,19.217C497.908,294.671,512.574,318.041,531.305,319.34z"/>
							<path clip-path="url(#SVGID_10_)" fill="#B6A0FF" d="M531.307,319.19c18.674,1.296,34.334-19.903,34.973-47.35
								c0.32-13.722-3.174-26.411-9.082-35.829c-1.477-2.353-3.105-4.503-4.863-6.414l1.42,7.21l-50.941,16.507l-1.051-5.325
								c-1.848,5.827-2.947,12.298-3.109,19.159C498.014,294.597,512.633,317.896,531.307,319.19z"/>
							<path clip-path="url(#SVGID_10_)" fill="#B69FFF" d="M531.311,319.043c18.617,1.289,34.229-19.844,34.867-47.21
								c0.32-13.681-3.166-26.33-9.055-35.719c-1.471-2.347-3.098-4.492-4.848-6.396l1.402,7.117l-50.791,16.457l-1.029-5.237
								c-1.846,5.81-2.941,12.261-3.1,19.102C498.117,294.52,512.693,317.75,531.311,319.043z"/>
							<path clip-path="url(#SVGID_10_)" fill="#B69EFF" d="M531.314,318.893c18.563,1.287,34.125-19.782,34.764-47.066
								c0.316-13.641-3.156-26.251-9.031-35.612c-1.467-2.34-3.084-4.478-4.832-6.377l1.385,7.022l-50.639,16.406l-1.014-5.147
								c-1.836,5.792-2.93,12.224-3.088,19.045C498.221,294.445,512.754,317.605,531.314,318.893z"/>
							<path clip-path="url(#SVGID_10_)" fill="#B69DFF" d="M531.318,318.742c18.504,1.285,34.021-19.725,34.656-46.923
								c0.318-13.599-3.145-26.172-9-35.504c-1.463-2.333-3.078-4.463-4.82-6.358l1.363,6.928l-50.48,16.357l-0.996-5.057
								c-1.834,5.773-2.924,12.187-3.082,18.986C498.326,294.367,512.813,317.459,531.318,318.742z"/>
							<path clip-path="url(#SVGID_10_)" fill="#B69CFF" d="M531.32,318.594c18.453,1.279,33.918-19.664,34.555-46.781
								c0.316-13.56-3.139-26.093-8.977-35.396c-1.459-2.326-3.066-4.451-4.803-6.339l1.344,6.833l-50.328,16.308l-0.979-4.97
								c-1.828,5.757-2.912,12.15-3.072,18.928C498.43,294.295,512.871,317.314,531.32,318.594z"/>
							<path clip-path="url(#SVGID_10_)" fill="#B69BFF" d="M531.322,318.443c18.396,1.275,33.818-19.604,34.447-46.637
								c0.316-13.519-3.127-26.014-8.945-35.289c-1.453-2.32-3.057-4.437-4.789-6.32l1.328,6.739l-50.178,16.258l-0.961-4.882
								c-1.82,5.739-2.904,12.112-3.061,18.873C498.531,294.218,512.932,317.168,531.322,318.443z"/>
							<path clip-path="url(#SVGID_10_)" fill="#B69AFF" d="M531.328,318.295c18.336,1.273,33.711-19.547,34.342-46.498
								c0.314-13.475-3.117-25.932-8.922-35.179c-1.447-2.312-3.047-4.423-4.771-6.3l1.309,6.644l-50.023,16.209l-0.943-4.794
								c-1.816,5.723-2.896,12.077-3.055,18.815C498.635,294.143,512.99,317.021,531.328,318.295z"/>
							<path clip-path="url(#SVGID_10_)" fill="#B69AFF" d="M531.334,318.145c18.279,1.27,33.607-19.484,34.234-46.353
								c0.314-13.434-3.107-25.854-8.893-35.073c-1.445-2.305-3.039-4.408-4.76-6.28l1.291,6.549l-49.871,16.158l-0.926-4.703
								c-1.813,5.704-2.887,12.04-3.045,18.757C498.738,294.067,513.051,316.875,531.334,318.145z"/>
							<path clip-path="url(#SVGID_10_)" fill="#B69BFF" d="M531.352,317.293c17.959,1.244,33.02-19.145,33.637-45.542
								c0.307-13.199-3.055-25.4-8.738-34.457c-1.418-2.267-2.984-4.333-4.674-6.171l1.182,6.01l-48.994,15.875l-0.826-4.196
								c-1.779,5.604-2.836,11.829-2.992,18.427C499.33,293.637,513.393,316.045,531.352,317.293z"/>
							<path clip-path="url(#SVGID_10_)" fill="#B79CFF" d="M531.369,316.439c17.641,1.222,32.434-18.803,33.039-44.729
								c0.301-12.962-2.998-24.946-8.58-33.843c-1.398-2.224-2.934-4.254-4.596-6.06l1.078,5.469l-48.121,15.591l-0.727-3.686
								c-1.746,5.504-2.783,11.616-2.936,18.098C499.924,293.205,513.732,315.215,531.369,316.439z"/>
							<path clip-path="url(#SVGID_10_)" fill="#B79EFF" d="M531.391,315.584c17.318,1.201,31.84-18.46,32.436-43.914
								c0.297-12.727-2.945-24.492-8.422-33.227c-1.373-2.182-2.883-4.177-4.512-5.951l0.971,4.929l-47.244,15.309l-0.627-3.178
								c-1.715,5.403-2.736,11.405-2.883,17.768C500.514,292.773,514.074,314.383,531.391,315.584z"/>
							<path clip-path="url(#SVGID_10_)" fill="#B79FFF" d="M531.41,314.73c17,1.178,31.252-18.117,31.834-43.102
								c0.295-12.492-2.889-24.04-8.266-32.61c-1.348-2.145-2.826-4.1-4.426-5.839l0.861,4.387l-46.369,15.025l-0.527-2.672
								c-1.682,5.305-2.68,11.194-2.828,17.439C501.107,292.344,514.414,313.552,531.41,314.73z"/>
							<path clip-path="url(#SVGID_10_)" fill="#B8A0FF" d="M531.43,313.876c16.68,1.158,30.662-17.774,31.234-42.286
								c0.287-12.256-2.836-23.587-8.111-31.997c-1.318-2.103-2.773-4.023-4.342-5.729l0.756,3.847l-45.492,14.742l-0.428-2.165
								c-1.652,5.204-2.633,10.983-2.777,17.111C501.697,291.91,514.754,312.72,531.43,313.876z"/>
							<path clip-path="url(#SVGID_10_)" fill="#B8A1FF" d="M531.451,313.022c16.357,1.136,30.072-17.433,30.633-41.474
								c0.281-12.021-2.781-23.133-7.955-31.379c-1.297-2.063-2.721-3.947-4.262-5.62l0.652,3.308l-44.621,14.458l-0.322-1.657
								c-1.623,5.103-2.584,10.772-2.725,16.782C502.289,291.48,515.094,311.889,531.451,313.022z"/>
							<path clip-path="url(#SVGID_10_)" fill="#B8A2FF" d="M531.469,312.172c16.039,1.109,29.482-17.094,30.033-40.662
								c0.275-11.783-2.725-22.679-7.797-30.768c-1.271-2.02-2.668-3.868-4.178-5.509l0.545,2.769l-43.746,14.173l-0.225-1.148
								c-1.59,5.003-2.531,10.561-2.67,16.455C502.883,291.049,515.438,311.057,531.469,312.172z"/>
							<path clip-path="url(#SVGID_10_)" fill="#B9A3FF" d="M531.492,311.318c15.715,1.088,28.893-16.751,29.428-39.85
								c0.271-11.548-2.67-22.225-7.643-30.151c-2.486-3.962-5.479-7.237-8.834-9.589l1.496,7.612l-39.186,12.697l-0.125-0.64
								c-1.557,4.902-2.482,10.35-2.617,16.123C503.473,290.62,515.775,310.227,531.492,311.318z"/>
							<path clip-path="url(#SVGID_10_)" fill="#B9A4FF" d="M531.512,310.463c15.396,1.069,28.305-16.408,28.83-39.033
								c0.264-11.315-2.617-21.772-7.488-29.536c-2.436-3.882-5.367-7.091-8.658-9.395l1.375,6.963l-38.387,12.437l-0.027-0.133
								c-1.525,4.804-2.432,10.138-2.564,15.796C504.066,290.187,516.117,309.396,531.512,310.463z"/>
							<path clip-path="url(#SVGID_10_)" fill="#B9A6FF" d="M531.529,309.611c15.074,1.043,27.713-16.067,28.23-38.222
								c0.26-11.079-2.561-21.319-7.33-28.922c-2.385-3.801-5.258-6.942-8.477-9.199l1.244,6.313l-33.846,10.964l-0.994-5.05
								c-1.031,2.065-1.928,4.287-2.674,6.64c-1.496,4.702-2.381,9.926-2.51,15.465
								C504.656,289.757,516.457,308.563,531.529,309.611z"/>
							<path clip-path="url(#SVGID_10_)" fill="#BAA7FF" d="M531.551,308.757c14.754,1.024,27.121-15.726,27.629-37.408
								c0.254-10.842-2.508-20.867-7.176-28.305c-2.334-3.72-5.146-6.794-8.295-9.003l1.115,5.662l-33.121,10.734l-0.875-4.429
								c-1.008,2.022-1.889,4.196-2.617,6.497c-1.461,4.604-2.332,9.716-2.455,15.139
								C505.248,289.324,516.797,307.732,531.551,308.757z"/>
							<path clip-path="url(#SVGID_10_)" fill="#BAA8FF" d="M531.57,307.902c14.434,1.002,26.535-15.383,27.029-36.595
								c0.246-10.605-2.453-20.412-7.02-27.689c-2.283-3.64-5.033-6.646-8.115-8.807l0.988,5.012l-32.404,10.499l-0.748-3.806
								c-0.99,1.98-1.85,4.106-2.564,6.358c-1.428,4.501-2.277,9.502-2.4,14.807C505.84,288.896,517.137,306.901,531.57,307.902z"/>
							<path clip-path="url(#SVGID_10_)" fill="#BAA9FF" d="M531.59,307.049c14.111,0.979,25.945-15.043,26.43-35.781
								c0.24-10.369-2.4-19.957-6.865-27.075c-2.232-3.557-4.922-6.498-7.934-8.612l0.859,4.362l-27.641,8.958l-1.42-7.214
								c-4.783,6.475-7.863,15.666-8.104,26.035C506.434,288.463,517.477,306.07,531.59,307.049z"/>
							<path clip-path="url(#SVGID_10_)" fill="#BBAAFF" d="M531.609,306.195c13.793,0.955,25.355-14.698,25.828-34.969
								c0.238-10.133-2.344-19.502-6.707-26.459c-2.182-3.477-4.809-6.352-7.754-8.416l0.73,3.711l-27.014,8.754l-1.277-6.5
								c-4.676,6.329-7.682,15.311-7.92,25.445C507.023,288.031,517.82,305.24,531.609,306.195z"/>
							<path clip-path="url(#SVGID_10_)" fill="#BBABFF" d="M531.629,305.342c13.473,0.936,24.768-14.357,25.229-34.156
								c0.23-9.897-2.291-19.049-6.551-25.842c-2.133-3.397-4.699-6.205-7.574-8.22l0.602,3.063l-26.383,8.548l-1.137-5.783
								c-4.566,6.181-7.506,14.954-7.734,24.853C507.617,287.601,518.16,304.408,531.629,305.342z"/>
							<path clip-path="url(#SVGID_10_)" fill="#BBACFF" d="M531.652,304.488c13.148,0.914,24.174-14.016,24.625-33.34
								c0.225-9.664-2.236-18.598-6.396-25.229c-2.082-3.315-4.586-6.057-7.393-8.024l0.475,2.411l-25.756,8.344l-0.998-5.068
								c-4.457,6.035-7.324,14.598-7.553,24.263C508.205,287.17,518.502,303.575,531.652,304.488z"/>
							<path clip-path="url(#SVGID_10_)" fill="#BCADFF" d="M531.67,303.635c12.828,0.889,23.586-13.674,24.025-32.528
								c0.441-18.856-9.602-34.863-22.43-35.751l1.496,7.608l-17.299,5.604l-0.855-4.354c-4.35,5.887-7.148,14.241-7.369,23.668
								C508.797,286.737,518.842,302.745,531.67,303.635z"/>
							<path clip-path="url(#SVGID_10_)" fill="#BCAFFF" d="M531.691,302.781c12.508,0.867,22.996-13.33,23.424-31.715
								c0.428-18.384-9.363-33.99-21.871-34.857l1.342,6.813l-16.867,5.465l-0.717-3.64c-4.238,5.739-6.969,13.886-7.182,23.076
								C509.391,286.308,519.182,301.913,531.691,302.781z"/>
							<path clip-path="url(#SVGID_10_)" fill="#BCB0FF" d="M531.709,301.93c12.188,0.844,22.406-12.993,22.824-30.904
								c0.422-17.913-9.121-33.117-21.309-33.964l1.182,6.017l-16.432,5.325l-0.576-2.924c-4.129,5.592-6.789,13.529-7.002,22.486
								C509.982,285.876,519.525,301.082,531.709,301.93z"/>
							<path clip-path="url(#SVGID_10_)" fill="#BDB1FF" d="M531.73,301.074c11.867,0.824,21.816-12.648,22.223-30.089
								c0.408-17.439-8.881-32.246-20.75-33.07l1.029,5.219l-16.002,5.185l-0.436-2.208c-4.021,5.445-6.609,13.173-6.816,21.894
								C510.574,285.445,519.863,300.251,531.73,301.074z"/>
							<path clip-path="url(#SVGID_10_)" fill="#BDB2FF" d="M531.748,300.221c11.549,0.801,21.23-12.307,21.625-29.276
								c0.396-16.97-8.643-31.376-20.188-32.176l0.869,4.423l-15.568,5.045l-0.295-1.495c-3.912,5.298-6.432,12.818-6.629,21.303
								C511.164,285.014,520.205,299.419,531.748,300.221z"/>
							<path clip-path="url(#SVGID_10_)" fill="#BDB3FF" d="M531.771,299.368c11.225,0.779,20.635-11.965,21.021-28.463
								c0.385-16.497-8.402-30.504-19.629-31.283l0.715,3.626l-15.137,4.905l-0.152-0.779c-3.807,5.15-6.256,12.461-6.449,20.709
								C511.758,284.583,520.543,298.59,531.771,299.368z"/>
							<path clip-path="url(#SVGID_10_)" fill="#BEB4FF" d="M531.789,298.514c10.906,0.758,20.047-11.623,20.424-27.648
								c0.373-16.026-8.166-29.634-19.07-30.389c-10.902-0.757-20.045,11.622-20.42,27.648
								C512.35,284.152,520.885,297.756,531.789,298.514z"/>
							<path clip-path="url(#SVGID_10_)" fill="#BEB5FF" d="M531.809,297.658c10.588,0.735,19.459-11.277,19.822-26.834
								c0.361-15.556-7.922-28.761-18.506-29.496s-19.459,11.281-19.82,26.837C512.941,283.721,521.227,296.928,531.809,297.658z"/>
							<path clip-path="url(#SVGID_10_)" fill="#BEB6FF" d="M531.828,296.807c10.266,0.711,18.871-10.938,19.223-26.023
								c0.352-15.084-7.684-27.889-17.945-28.602c-10.264-0.71-18.867,10.94-19.221,26.024
								C513.533,283.289,521.566,296.096,531.828,296.807z"/>
							<path clip-path="url(#SVGID_10_)" fill="#BFB7FF" d="M531.85,295.955c9.943,0.689,18.281-10.6,18.619-25.213
								c0.342-14.61-7.443-27.016-17.383-27.706c-9.941-0.69-18.279,10.597-18.621,25.21
								C514.125,282.857,521.908,295.264,531.85,295.955z"/>
							<path clip-path="url(#SVGID_10_)" fill="#BFB8FF" d="M531.869,295.1c9.623,0.667,17.688-10.256,18.02-24.396
								c0.33-14.142-7.201-26.147-16.826-26.813c-9.619-0.669-17.686,10.254-18.016,24.395
								C514.715,282.428,522.25,294.432,531.869,295.1z"/>
							<path clip-path="url(#SVGID_10_)" fill="#BFB9FF" d="M531.889,294.246c9.301,0.646,17.1-9.912,17.418-23.583
								c0.32-13.67-6.961-25.276-16.26-25.921c-9.303-0.646-17.1,9.915-17.422,23.584
								C515.309,281.996,522.59,293.601,531.889,294.246z"/>
							<path clip-path="url(#SVGID_10_)" fill="#C0BAFF" d="M531.91,293.394c8.98,0.623,16.51-9.571,16.818-22.772
								c0.309-13.196-6.723-24.403-15.703-25.024c-8.982-0.625-16.51,9.571-16.818,22.77
								C515.9,281.564,522.93,292.77,531.91,293.394z"/>
							<path clip-path="url(#SVGID_10_)" fill="#C0BCFF" d="M531.93,292.539c8.658,0.602,15.92-9.229,16.217-21.956
								c0.299-12.729-6.482-23.531-15.141-24.133c-8.66-0.601-15.92,9.229-16.219,21.958
								C516.49,281.134,523.27,291.939,531.93,292.539z"/>
							<path clip-path="url(#SVGID_10_)" fill="#C0BDFF" d="M531.949,291.688c8.342,0.577,15.332-8.889,15.617-21.146
								c0.285-12.256-6.242-22.661-14.582-23.238c-8.338-0.579-15.328,8.887-15.615,21.145
								C517.082,280.705,523.611,291.107,531.949,291.688z"/>
							<path clip-path="url(#SVGID_10_)" fill="#C1BEFF" d="M531.971,290.832c8.016,0.557,14.738-8.546,15.014-20.33
								c0.273-11.784-6-21.789-14.02-22.345c-8.02-0.557-14.74,8.546-15.016,20.33C517.674,280.271,523.951,290.275,531.971,290.832
								z"/>
							<path clip-path="url(#SVGID_10_)" fill="#C1BFFF" d="M531.988,289.977c7.699,0.536,14.152-8.2,14.416-19.514
								c0.266-11.313-5.762-20.918-13.461-21.452c-7.695-0.534-14.148,8.204-14.414,19.518
								C518.266,279.841,524.291,289.445,531.988,289.977z"/>
							<path clip-path="url(#SVGID_10_)" fill="#C1C0FF" d="M532.01,289.125c7.375,0.514,13.563-7.863,13.813-18.703
								c0.254-10.843-5.52-20.045-12.896-20.558c-7.375-0.512-13.563,7.863-13.816,18.705
								C518.859,279.411,524.633,288.614,532.01,289.125z"/>
							<path clip-path="url(#SVGID_10_)" fill="#C2C1FF" d="M532.027,288.271c7.059,0.488,12.975-7.52,13.215-17.891
								c0.24-10.37-5.279-19.173-12.338-19.663c-7.055-0.49-12.971,7.52-13.213,17.891
								C519.449,278.979,524.973,287.782,532.027,288.271z"/>
							<path clip-path="url(#SVGID_10_)" fill="#C2C2FF" d="M532.049,287.418c6.734,0.468,12.383-7.178,12.615-17.076
								c0.229-9.899-5.043-18.304-11.777-18.772c-6.736-0.465-12.383,7.18-12.613,17.08
								C520.041,278.547,525.314,286.953,532.049,287.418z"/>
							<path clip-path="url(#SVGID_10_)" fill="#C2C3FF" d="M532.068,286.564c6.416,0.445,11.793-6.836,12.014-16.265
								c0.219-9.426-4.803-17.431-11.217-17.875c-6.416-0.444-11.793,6.836-12.016,16.264
								C520.633,278.116,525.656,286.121,532.068,286.564z"/>
							<path clip-path="url(#SVGID_10_)" fill="#C2C4FF" d="M532.088,285.711c6.096,0.422,11.205-6.495,11.412-15.451
								c0.209-8.957-4.561-16.559-10.654-16.983c-6.092-0.421-11.201,6.495-11.412,15.452
								C521.227,277.686,525.994,285.287,532.088,285.711z"/>
							<path clip-path="url(#SVGID_10_)" fill="#C3C5FF" d="M532.109,284.859c5.773,0.399,10.615-6.153,10.811-14.64
								c0.197-8.483-4.32-15.688-10.094-16.088c-5.773-0.401-10.615,6.153-10.811,14.639
								C521.818,277.254,526.336,284.459,532.109,284.859z"/>
							<path clip-path="url(#SVGID_10_)" fill="#C3C6FF" d="M532.129,284.004c5.451,0.378,10.023-5.813,10.211-13.824
								c0.186-8.013-4.082-14.816-9.533-15.194c-5.453-0.379-10.025,5.811-10.213,13.824
								C522.408,276.823,526.676,283.625,532.129,284.004z"/>
							<path clip-path="url(#SVGID_10_)" fill="#C3C7FF" d="M532.146,283.15c5.133,0.356,9.436-5.468,9.613-13.01
								c0.174-7.542-3.844-13.945-8.975-14.301c-5.131-0.357-9.432,5.469-9.607,13.011C523,276.391,527.016,282.797,532.146,283.15z
								"/>
							<path clip-path="url(#SVGID_10_)" fill="#C4C8FF" d="M532.168,282.296c4.813,0.335,8.844-5.126,9.012-12.198
								c0.164-7.069-3.604-13.072-8.412-13.406c-4.813-0.333-8.848,5.128-9.008,12.198
								C523.592,275.961,527.357,281.963,532.168,282.296z"/>
							<path clip-path="url(#SVGID_10_)" fill="#C4C8FF" d="M532.189,281.445c4.488,0.31,8.254-4.787,8.408-11.385
								c0.154-6.6-3.361-12.203-7.854-12.514c-4.488-0.311-8.252,4.785-8.406,11.385
								C524.182,275.528,527.695,281.134,532.189,281.445z"/>
							<path clip-path="url(#SVGID_10_)" fill="#C4C9FF" d="M532.207,280.59c4.172,0.288,7.666-4.444,7.811-10.571
								c0.141-6.129-3.123-11.331-7.293-11.62c-4.168-0.289-7.664,4.444-7.809,10.572C524.775,275.099,528.039,280.3,532.207,280.59
								z"/>
							<path clip-path="url(#SVGID_10_)" fill="#C4CAFF" d="M532.229,279.736c3.848,0.266,7.074-4.102,7.209-9.757
								c0.131-5.657-2.883-10.46-6.732-10.727c-3.848-0.267-7.074,4.103-7.205,9.758
								C525.365,274.669,528.381,279.47,532.229,279.736z"/>
							<path clip-path="url(#SVGID_10_)" fill="#C5CBFF" d="M532.248,278.883c3.529,0.245,6.488-3.76,6.607-8.946
								c0.121-5.184-2.643-9.586-6.17-9.83c-3.525-0.244-6.484,3.76-6.607,8.944C525.957,274.237,528.721,278.638,532.248,278.883z"
								/>
							<path clip-path="url(#SVGID_10_)" fill="#C5CCFF" d="M532.268,278.03c3.207,0.222,5.896-3.419,6.006-8.133
								c0.111-4.714-2.398-8.714-5.609-8.937c-3.203-0.225-5.895,3.417-6.004,8.132C526.551,273.805,529.061,277.81,532.268,278.03z
								"/>
							<path clip-path="url(#SVGID_10_)" fill="#C5CDFF" d="M532.289,277.176c2.887,0.201,5.305-3.078,5.404-7.318
								c0.1-4.243-2.16-7.845-5.047-8.044c-2.887-0.201-5.307,3.076-5.406,7.319C527.143,273.375,529.402,276.977,532.289,277.176z"
								/>
							<path clip-path="url(#SVGID_10_)" fill="#C5CEFF" d="M532.309,276.323c2.564,0.179,4.717-2.734,4.805-6.506
								c0.09-3.77-1.922-6.972-4.486-7.151c-2.564-0.176-4.717,2.736-4.805,6.508C527.734,272.943,529.744,276.145,532.309,276.323z
								"/>
							<path clip-path="url(#SVGID_10_)" fill="#C6CFFF" d="M532.326,275.469c2.248,0.157,4.129-2.393,4.205-5.691
								c0.078-3.301-1.68-6.103-3.924-6.257c-2.246-0.156-4.129,2.393-4.207,5.693C528.322,272.513,530.084,275.313,532.326,275.469
								z"/>
							<path clip-path="url(#SVGID_10_)" fill="#C6D0FF" d="M532.346,274.616c1.926,0.133,3.539-2.05,3.605-4.88
								c0.066-2.828-1.439-5.228-3.363-5.361c-1.926-0.135-3.537,2.048-3.604,4.878
								C528.918,272.082,530.424,274.483,532.346,274.616z"/>
							<path clip-path="url(#SVGID_10_)" fill="#C6D0FF" d="M532.367,273.763c1.604,0.11,2.949-1.71,3.002-4.067
								c0.057-2.357-1.201-4.357-2.803-4.469c-1.604-0.112-2.947,1.709-3.004,4.066C529.51,271.65,530.764,273.65,532.367,273.763z"
								/>
							<path clip-path="url(#SVGID_10_)" fill="#C6D1FF" d="M532.389,272.909c1.281,0.09,2.357-1.367,2.402-3.253
								c0.043-1.884-0.961-3.486-2.244-3.575c-1.281-0.088-2.359,1.367-2.402,3.254
								C530.102,271.219,531.105,272.821,532.389,272.909z"/>
							<path clip-path="url(#SVGID_10_)" fill="#C7D2FF" d="M532.406,272.054c0.965,0.069,1.77-1.023,1.805-2.439
								c0.031-1.413-0.721-2.614-1.684-2.681c-0.963-0.065-1.768,1.026-1.803,2.441C530.691,270.79,531.445,271.988,532.406,272.054
								z"/>
							<path clip-path="url(#SVGID_10_)" fill="#C7D2FF" d="M532.428,271.202c0.641,0.046,1.18-0.683,1.201-1.626
								s-0.48-1.743-1.121-1.788c-0.641-0.044-1.18,0.684-1.201,1.627C531.281,270.356,531.787,271.156,532.428,271.202z"/>
							<path clip-path="url(#SVGID_10_)" fill="#C7D3FF" d="M532.445,270.35c0.322,0.021,0.594-0.344,0.602-0.814
								c0.014-0.473-0.238-0.872-0.561-0.894c-0.32-0.022-0.588,0.342-0.6,0.812C531.875,269.926,532.127,270.326,532.445,270.35z"
								/>
						</g>
					</g>
					
						<linearGradient id="SVGID_11_" gradientUnits="userSpaceOnUse" x1="787.0469" y1="353.5859" x2="787.0469" y2="310.6289" gradientTransform="matrix(-0.9993 -0.0364 -0.0364 0.9993 1341.3354 -13.8223)">
						<stop  offset="0" style="stop-color:#030D14"/>
						<stop  offset="1" style="stop-color:#0B2F45"/>
					</linearGradient>
					<path fill-rule="evenodd" clip-rule="evenodd" fill="url(#SVGID_11_)" d="M569.385,272.758
						c10.137,6.997-10.264,43.593-31.027,37.448c-22.182-6.565-25.273-34.131-23.68-37.473
						C516.27,269.392,556.906,264.145,569.385,272.758z"/>
					
						<radialGradient id="SVGID_12_" cx="726.1875" cy="304.249" r="6.595" gradientTransform="matrix(-1.0054 -0.0328 -0.0029 1.1103 1244.3428 -61.126)" gradientUnits="userSpaceOnUse">
						<stop  offset="0" style="stop-color:#C7D3FF"/>
						<stop  offset="0.3836" style="stop-color:#C1C0FF"/>
						<stop  offset="1" style="stop-color:#B69AFF"/>
					</radialGradient>
					<path fill-rule="evenodd" clip-rule="evenodd" fill="url(#SVGID_12_)" d="M504.494,255.999c0,0,4.547-11.35,17.709-4.125
						C522.203,251.874,511.309,253.292,504.494,255.999z"/>
					
						<radialGradient id="SVGID_13_" cx="661.8525" cy="302.71" r="8.7775" gradientTransform="matrix(-1.0054 -0.0328 -0.0029 1.1103 1244.3428 -61.126)" gradientUnits="userSpaceOnUse">
						<stop  offset="0" style="stop-color:#C7D3FF"/>
						<stop  offset="0.3836" style="stop-color:#C1C0FF"/>
						<stop  offset="1" style="stop-color:#B69AFF"/>
					</radialGradient>
					<path fill-rule="evenodd" clip-rule="evenodd" fill="url(#SVGID_13_)" d="M584.146,255.947c0,0-4.418-11.675-24.326-3.779
						L584.146,255.947z"/>
					
						<linearGradient id="SVGID_14_" gradientUnits="userSpaceOnUse" x1="786.0127" y1="260.2764" x2="786.0127" y2="247.2969" gradientTransform="matrix(-1.1565 0.091 0.0831 1.0565 1429.8223 -83.75)">
						<stop  offset="0" style="stop-color:#D4BFFF"/>
						<stop  offset="0.9905" style="stop-color:#C2ACFF"/>
						<stop  offset="1" style="stop-color:#C2ACFF"/>
					</linearGradient>
					<path fill-rule="evenodd" clip-rule="evenodd" fill="url(#SVGID_14_)" d="M566.668,250.912c0,0-19.84,13.702-34.014,12.262
						c-14.172-1.44-16.242-11.115-16.242-11.115S525.582,247.629,566.668,250.912z"/>
					<g>
						<path fill="#B6DEFF" d="M566.418,250.944c-0.008,0-0.014-0.002-0.02-0.002c-3.816,2.395-20.543,12.449-32.27,12.321
							c-13.18-0.144-17.168-8.232-17.514-10.391l-0.24,0.066c0.355,2.204,4.4,10.469,17.742,10.615
							c3.246,0.035,6.871-0.706,10.504-1.847c10.1-3.175,20.23-9.454,22.303-10.774
							C566.756,250.938,566.586,250.939,566.418,250.944z"/>
					</g>
					<path fill-rule="evenodd" clip-rule="evenodd" fill="#FFFFFF" d="M527.934,262.583c0,0-6.861-1.375-10.244-7.101
						C517.689,255.482,522.215,260.68,527.934,262.583z"/>
					<path opacity="0.7" fill-rule="evenodd" clip-rule="evenodd" fill="#FFFFFF" d="M543.744,262.344
						c0,0-12.137,5.468-18.639,0.502C525.105,262.846,530.719,265.458,543.744,262.344z"/>
				</g>
				<g>
					
						<radialGradient id="SVGID_15_" cx="386.624" cy="234.3081" r="5.6953" gradientTransform="matrix(-0.4702 -0.3987 -0.7602 0.8966 912.916 228.0911)" gradientUnits="userSpaceOnUse">
						<stop  offset="0" style="stop-color:#D5FFFF"/>
						<stop  offset="0.254" style="stop-color:#D2FFFF"/>
						<stop  offset="0.4316" style="stop-color:#C9FFFF"/>
						<stop  offset="0.4692" style="stop-color:#C6FFFF"/>
						<stop  offset="1" style="stop-color:#56D7FF"/>
					</radialGradient>
					<path fill="url(#SVGID_15_)" d="M547.938,283.387c4.045-4.858,14.383-3.091,8.648,3.005
						C553.73,289.427,545.137,286.753,547.938,283.387z"/>
				</g>
				<g>
					
						<radialGradient id="SVGID_16_" cx="500.9629" cy="285.1523" r="5.6951" gradientTransform="matrix(0.4702 -0.3987 0.7602 0.8966 80.373 228.0911)" gradientUnits="userSpaceOnUse">
						<stop  offset="0" style="stop-color:#D5FFFF"/>
						<stop  offset="0.254" style="stop-color:#D2FFFF"/>
						<stop  offset="0.4316" style="stop-color:#C9FFFF"/>
						<stop  offset="0.4692" style="stop-color:#C6FFFF"/>
						<stop  offset="1" style="stop-color:#56D7FF"/>
					</radialGradient>
					<path fill="url(#SVGID_16_)" d="M537.766,283.387c-4.045-4.858-14.385-3.091-8.648,3.005
						C531.973,289.427,540.566,286.753,537.766,283.387z"/>
				</g>
			</g>
		</g>
	</g>
	<radialGradient id="SVGID_17_" cx="470.1431" cy="276.8511" r="107.9361" gradientUnits="userSpaceOnUse">
		<stop  offset="0" style="stop-color:#C6FFFF"/>
		<stop  offset="1" style="stop-color:#56D7FF"/>
	</radialGradient>
	<path fill-rule="evenodd" clip-rule="evenodd" fill="url(#SVGID_17_)" d="M486.795,315.124c5.695,4.292,11.873,8.035,18.346,11.119
		C498.947,322.67,492.926,318.807,486.795,315.124z"/>
</g>
</svg>
