<?xml version="1.0" encoding="utf-8"?>
<!-- Generator: Adobe Illustrator 16.0.0, SVG Export Plug-In . SVG Version: 6.00 Build 0)  -->
<!DOCTYPE svg PUBLIC "-//W3C//DTD SVG 1.1//EN" "http://www.w3.org/Graphics/SVG/1.1/DTD/svg11.dtd">
<svg version="1.1" id="Layer_1" xmlns="http://www.w3.org/2000/svg" xmlns:xlink="http://www.w3.org/1999/xlink" x="0px" y="0px"
	 width="380px" height="380px" viewBox="0 0 380 380" enable-background="new 0 0 380 380" xml:space="preserve">
<g>
	<g>
		<g>
			<g>
				<g>
					<defs>
						<path id="SVGID_1_" d="M372.68,64.636c0,0-238.197-50.455-365.359,0.237c0,0,13.064,264.837,168.258,279.773
							C341.975,360.655,372.68,64.636,372.68,64.636z"/>
					</defs>
					<clipPath id="SVGID_2_">
						<use xlink:href="#SVGID_1_"  overflow="visible"/>
					</clipPath>
					<polygon clip-path="url(#SVGID_2_)" fill="#B6DEFF" points="-31.165,67.852 349.065,-55.349 425.621,333.555 45.391,456.754 
											"/>
					<path clip-path="url(#SVGID_2_)" fill="#B6DEFF" d="M129.336,396.546c101.374,7.023,186.361-108.052,189.84-257.034
						C320.92,65.016,301.94-3.854,269.875-54.977l3.696,18.77L-35.882,64.066l47.478,241.164l-10.204,3.309
						C33.469,359.649,78.651,393.031,129.336,396.546z"/>
					<path clip-path="url(#SVGID_2_)" fill="#B6DDFF" d="M129.35,395.858c101.117,7.013,185.893-107.772,189.362-256.38
						c1.732-74.307-17.196-143-49.181-193.992l3.629,18.44L-35.882,64.066l47.41,240.823l-9.799,3.18
						C33.726,359.057,78.8,392.354,129.35,395.858z"/>
					<path clip-path="url(#SVGID_2_)" fill="#B6DCFF" d="M129.369,395.177c100.857,6.996,185.415-107.498,188.882-255.737
						c1.719-74.108-17.144-142.628-49.058-193.489l3.564,18.107L-35.882,64.066l47.346,240.499l-9.388,3.04
						C33.985,358.465,78.937,391.679,129.369,395.177z"/>
					<path clip-path="url(#SVGID_2_)" fill="#B6DBFF" d="M129.392,394.489c100.592,6.979,184.939-107.219,188.396-255.078
						c1.722-73.921-17.104-142.268-48.94-192.997l3.498,17.775L-35.882,64.066l47.278,240.169l-8.984,2.911
						C34.245,357.878,79.085,391.003,129.392,394.489z"/>
					<path clip-path="url(#SVGID_2_)" fill="#B6DAFF" d="M129.403,393.802c100.337,6.963,184.473-106.95,187.912-254.429
						c1.716-73.731-17.057-141.896-48.804-192.5l3.431,17.451L-35.882,64.066L11.33,303.899l-8.575,2.783
						C34.505,357.286,79.232,390.32,129.403,393.802z"/>
					<path clip-path="url(#SVGID_2_)" fill="#B6D9FF" d="M129.414,393.109c100.083,6.951,183.995-106.66,187.432-253.765
						c1.722-73.541-17.006-141.539-48.678-192.011l3.372,17.119L-35.882,64.066l47.156,239.51l-8.181,2.643
						C34.765,356.693,79.372,389.645,129.414,393.109z"/>
					<path clip-path="url(#SVGID_2_)" fill="#B6D8FF" d="M129.434,392.433c99.82,6.918,183.523-106.402,186.948-253.116
						c1.71-73.351-16.967-141.178-48.555-191.521l3.3,16.791l-307.009,99.48l47.08,239.18l-7.759,2.509
						C35.024,356.106,79.521,388.969,129.434,392.433z"/>
					<path clip-path="url(#SVGID_2_)" fill="#B6D7FF" d="M129.444,391.74c99.567,6.912,183.057-106.118,186.474-252.457
						c1.707-73.167-16.925-140.813-48.435-191.025l3.241,16.456L-35.882,64.066L11.14,302.905l-7.356,2.392
						C35.285,355.509,79.669,388.298,129.444,391.74z"/>
					<path clip-path="url(#SVGID_2_)" fill="#B6D6FF" d="M129.467,391.059c99.313,6.896,182.573-105.85,185.979-251.809
						c1.707-72.982-16.875-140.444-48.307-190.527l3.183,16.129L-35.882,64.066l46.957,238.515l-6.954,2.252
						C35.545,354.911,79.813,387.616,129.467,391.059z"/>
					<path clip-path="url(#SVGID_2_)" fill="#B6D5FF" d="M129.479,390.377c99.05,6.867,182.106-105.576,185.504-251.158
						c1.696-72.79-16.836-140.083-48.181-190.033l3.112,15.791L-35.882,64.066l46.891,238.18l-6.541,2.123
						C35.813,354.318,79.953,386.94,129.479,390.377z"/>
					<path clip-path="url(#SVGID_2_)" fill="#B6D4FF" d="M129.498,389.695c98.79,6.851,181.629-105.313,185.023-250.507
						c1.69-72.602-16.794-139.723-48.063-189.544l3.042,15.467L-35.882,64.066l46.823,237.85l-6.138,1.989
						C36.072,353.737,80.102,386.259,129.498,389.695z"/>
					<path clip-path="url(#SVGID_2_)" fill="#B6D3FF" d="M129.512,389.008c98.53,6.834,181.154-105.028,184.535-249.856
						c1.692-72.404-16.744-139.354-47.927-189.046l2.978,15.137L-35.882,64.066l46.756,237.521l-5.725,1.866
						C36.332,353.146,80.241,385.582,129.512,389.008z"/>
					<path clip-path="url(#SVGID_2_)" fill="#B6D2FF" d="M129.531,388.32c98.278,6.817,180.68-104.749,184.046-249.196
						c1.688-72.22-16.696-138.994-47.804-188.558l2.92,14.808L-35.882,64.066l46.692,237.191l-5.325,1.732
						C36.581,352.553,80.387,384.9,129.531,388.32z"/>
					<path clip-path="url(#SVGID_2_)" fill="#B6D1FF" d="M129.543,387.639c98.023,6.795,180.206-104.48,183.573-248.545
						c1.685-72.033-16.66-138.631-47.678-188.063l2.853,14.472L-35.882,64.066l46.625,236.861l-4.912,1.599
						C36.85,351.961,80.535,384.23,129.543,387.639z"/>
					<path clip-path="url(#SVGID_2_)" fill="#B6D0FF" d="M129.564,386.945c97.76,6.784,179.727-104.201,183.085-247.891
						c1.674-71.843-16.626-138.259-47.558-187.561l2.788,14.148L-35.882,64.066l46.569,236.532l-4.521,1.47
						C37.101,351.368,80.683,383.554,129.564,386.945z"/>
					<path clip-path="url(#SVGID_2_)" fill="#B6CFFF" d="M129.576,386.264c97.505,6.756,179.257-103.933,182.604-247.238
						c1.671-71.658-16.578-137.901-47.423-187.071l2.721,13.813L-35.801,64.035l-0.31-1.556c-2.741,16.735-4.39,34.136-4.809,52.05
						l14.078-4.56l37.452,190.298l-4.099,1.336C37.369,350.776,80.822,382.884,129.576,386.264z"/>
					<path clip-path="url(#SVGID_2_)" fill="#B6CEFF" d="M129.596,385.577c97.245,6.75,178.782-103.648,182.118-246.582
						C313.387,67.524,295.19,1.46,264.418-47.579l2.646,13.478L-35.406,63.912l-0.246-1.257
						c-2.741,16.683-4.384,34.041-4.794,51.908l13.637-4.42l37.362,189.796l-3.701,1.207
						C37.62,350.184,80.971,382.207,129.596,385.577z"/>
					<path clip-path="url(#SVGID_2_)" fill="#B6CDFF" d="M129.606,384.895c96.991,6.729,178.321-103.38,181.646-245.936
						c1.659-71.278-16.487-137.169-47.179-186.085l2.588,13.159L-35.013,63.781l-0.189-0.956
						c-2.725,16.635-4.37,33.954-4.783,51.771l13.209-4.283l37.266,189.295l-3.294,1.067
						C37.88,349.591,81.119,381.525,129.606,384.895z"/>
					<path clip-path="url(#SVGID_2_)" fill="#B6CCFF" d="M129.629,384.208c96.729,6.705,177.841-103.106,181.154-245.283
						c1.654-71.085-16.447-136.803-47.047-185.59l2.521,12.83L-34.619,63.652l-0.122-0.665c-2.73,16.602-4.359,33.865-4.781,51.643
						l12.779-4.141l37.165,188.795l-2.892,0.928C38.148,348.999,81.259,380.855,129.629,384.208z"/>
					<path clip-path="url(#SVGID_2_)" fill="#B6CBFF" d="M129.641,383.526c96.471,6.683,177.368-102.833,180.676-244.629
						c1.657-70.895-16.395-136.443-46.926-185.096l2.458,12.494l-300.073,97.23l-0.07-0.366
						c-2.721,16.551-4.347,33.775-4.755,51.497l12.341-4.001l37.066,188.292l-2.48,0.805
						C38.408,348.406,81.403,380.173,129.641,383.526z"/>
					<path clip-path="url(#SVGID_2_)" fill="#B6CAFF" d="M129.651,382.833c96.22,6.678,176.901-102.553,180.196-243.969
						c1.653-70.708-16.351-136.08-46.804-184.599l2.399,12.165L-33.822,63.395l-0.022-0.062
						c-2.702,16.507-4.325,33.678-4.733,51.358l11.902-3.861L10.29,298.619l-2.075,0.671
						C38.657,347.82,81.543,379.497,129.651,382.833z"/>
					<path clip-path="url(#SVGID_2_)" fill="#B6C9FF" d="M129.674,382.151c95.951,6.649,176.421-102.285,179.71-243.321
						c1.643-70.521-16.309-135.708-46.675-184.107l2.324,11.838l-289.432,93.78l-4.141-21.019
						c-1.872,7.882-3.492,15.948-4.845,24.179c-2.707,16.464-4.322,33.591-4.732,51.223l11.482-3.721L10.224,298.29l-1.665,0.53
						C38.928,347.222,81.691,378.821,129.674,382.151z"/>
					<path clip-path="url(#SVGID_2_)" fill="#B6C8FF" d="M129.685,381.464c95.711,6.639,175.949-102.005,179.238-242.661
						c1.637-70.334-16.27-135.354-46.558-183.615l2.266,11.505L-24.024,60.221l-4.07-20.661c-1.872,7.859-3.495,15.906-4.839,24.108
						c-2.699,16.425-4.306,33.504-4.72,51.083l11.045-3.576L10.168,297.96l-1.264,0.408C39.177,346.63,81.84,378.14,129.685,381.464
						z"/>
					<path clip-path="url(#SVGID_2_)" fill="#B6C7FF" d="M129.705,380.782c95.448,6.616,175.471-101.737,178.745-242.019
						c1.635-70.138-16.222-134.979-46.424-183.112l2.202,11.17L-23.655,60.098l-3.995-20.303
						c-1.866,7.837-3.481,15.861-4.825,24.047c-2.693,16.375-4.3,33.409-4.714,50.95l10.614-3.442l36.676,186.275l-0.857,0.273
						C39.445,346.037,81.979,377.469,129.705,380.782z"/>
					<path clip-path="url(#SVGID_2_)" fill="#B6C6FF" d="M129.727,380.09c95.184,6.604,174.994-101.458,178.26-241.349
						c1.635-69.957-16.177-134.627-46.306-182.632l2.137,10.843L-23.289,59.976l-3.92-19.949
						c-1.866,7.823-3.481,15.819-4.817,23.986c-2.674,16.333-4.285,33.317-4.69,50.81l10.175-3.3l36.578,185.784l-0.458,0.145
						C39.705,345.456,82.124,376.793,129.727,380.09z"/>
					<path clip-path="url(#SVGID_2_)" fill="#B6C5FF" d="M129.738,379.402c94.929,6.594,174.521-101.173,177.784-240.7
						c1.623-69.761-16.138-134.255-46.178-182.129l2.07,10.508l-286.33,92.783l-3.85-19.597c-1.869,7.792-3.465,15.763-4.803,23.916
						c-2.677,16.283-4.28,33.23-4.686,50.673l9.745-3.166L9.969,296.966l-0.044,0.021
						C39.965,344.858,82.275,376.111,129.738,379.402z"/>
					<path clip-path="url(#SVGID_2_)" fill="#B6C4FF" d="M129.749,378.721c94.675,6.571,174.052-100.905,177.302-240.052
						c1.62-69.574-16.088-133.889-46.052-181.631l2.011,10.181L-22.538,59.741l-3.794-19.242c-1.85,7.775-3.456,15.732-4.786,23.849
						c-2.668,16.246-4.255,33.141-4.666,50.539c-1.628,69.574,16.091,133.884,46.044,181.637
						C40.225,344.266,82.412,375.44,129.749,378.721z"/>
					<path clip-path="url(#SVGID_2_)" fill="#B6C3FF" d="M129.769,378.033c94.415,6.555,173.577-100.631,176.821-239.398
						c1.606-69.384-16.06-133.526-45.927-181.14l1.937,9.852L-22.172,59.618l-3.719-18.887c-1.85,7.753-3.437,15.69-4.77,23.793
						c-2.662,16.199-4.258,33.049-4.66,50.394c-1.617,69.387,16.049,133.523,45.927,181.143
						C40.484,343.668,82.561,374.753,129.769,378.033z"/>
					<path clip-path="url(#SVGID_2_)" fill="#B6C2FF" d="M129.791,377.352c94.149,6.526,173.103-100.357,176.326-238.745
						c1.618-69.199-16-133.166-45.8-180.648l1.88,9.516l-284,92.025l-3.652-18.529c-1.841,7.728-3.434,15.643-4.755,23.726
						c-2.654,16.148-4.244,32.954-4.646,50.254c-1.617,69.191,16.01,133.154,45.801,180.64
						C40.741,343.081,82.706,374.083,129.791,377.352z"/>
					<path clip-path="url(#SVGID_2_)" fill="#B6C1FF" d="M129.803,376.664c93.895,6.521,172.627-100.089,175.851-238.096
						c1.604-69.004-15.961-132.794-45.672-180.145l1.813,9.186L-21.429,59.38l-3.585-18.177c-1.832,7.708-3.422,15.604-4.746,23.656
						c-2.638,16.115-4.228,32.873-4.627,50.125c-1.612,69.001,15.962,132.797,45.675,180.153
						C41.001,342.489,82.846,373.412,129.803,376.664z"/>
					<path clip-path="url(#SVGID_2_)" fill="#B6C0FF" d="M129.813,375.982c93.641,6.493,172.155-99.82,175.368-237.442
						c1.612-68.814-15.908-132.434-45.547-179.659l1.749,8.862l-282.446,91.52l-3.507-17.822
						c-1.832,7.691-3.417,15.556-4.732,23.594c-2.638,16.062-4.213,32.775-4.621,49.98c-1.601,68.809,15.92,132.425,45.549,179.66
						C41.261,341.896,82.993,372.73,129.813,375.982z"/>
					<path clip-path="url(#SVGID_2_)" fill="#B6BFFF" d="M129.833,375.29c93.39,6.481,171.688-99.524,174.888-236.778
						C306.321,69.885,288.849,6.438,259.3-40.655l1.671,8.53L-20.686,59.14l-3.442-17.465c-1.824,7.667-3.408,15.518-4.716,23.522
						c-2.641,16.023-4.208,32.694-4.615,49.849c-1.602,68.627,15.88,132.07,45.429,179.165
						C41.521,341.311,83.142,372.055,129.833,375.29z"/>
					<path clip-path="url(#SVGID_2_)" fill="#B6BEFF" d="M129.847,374.607c93.133,6.46,171.217-99.256,174.398-236.132
						c1.609-68.434-15.821-131.707-45.294-178.667l1.617,8.197L-20.319,59.02l-3.364-17.113c-1.827,7.647-3.395,15.476-4.719,23.46
						c-2.615,15.979-4.186,32.599-4.585,49.715c-1.598,68.434,15.83,131.693,45.295,178.665
						C41.78,340.718,83.289,371.378,129.847,374.607z"/>
					<path clip-path="url(#SVGID_2_)" fill="#B6BDFF" d="M129.866,373.921c92.87,6.442,170.736-98.982,173.927-235.479
						c1.587-68.247-15.797-131.336-45.178-178.176l1.551,7.874L-19.942,58.897l-3.297-16.758
						c-1.827,7.625-3.397,15.437-4.705,23.402c-2.615,15.934-4.177,32.51-4.573,49.569c-1.601,68.255,15.782,131.341,45.169,178.178
						C42.04,340.126,83.438,370.696,129.866,373.921z"/>
					<path clip-path="url(#SVGID_2_)" fill="#B6BBFF" d="M129.881,373.233c92.615,6.426,170.263-98.709,173.439-234.825
						c1.596-68.051-15.74-130.97-45.049-177.678l1.481,7.541L-19.576,58.774l-3.229-16.395c-1.811,7.605-3.381,15.386-4.688,23.335
						c-2.599,15.889-4.163,32.409-4.56,49.43c-1.593,68.059,15.74,130.978,45.043,177.675
						C42.289,339.527,83.577,370.025,129.881,373.233z"/>
					<path clip-path="url(#SVGID_2_)" fill="#B6BAFF" d="M129.9,372.552c92.353,6.409,169.788-98.435,172.948-234.171
						c1.59-67.873-15.699-130.612-44.915-177.187l1.417,7.208L-19.21,58.662l-3.154-16.054c-1.811,7.585-3.37,15.35-4.672,23.268
						c-2.601,15.853-4.157,32.331-4.554,49.301c-1.582,67.87,15.701,130.604,44.926,177.184
						C42.558,338.936,83.723,369.35,129.9,372.552z"/>
					<path clip-path="url(#SVGID_2_)" fill="#B6B9FF" d="M129.911,371.864c92.099,6.387,169.316-98.161,172.477-233.522
						c1.578-67.677-15.651-130.244-44.801-176.684l1.361,6.878L-8.971,55.343l-6.814-34.628
						c-9.122,28.738-14.542,60.65-15.333,94.49c-1.578,67.685,15.651,130.246,44.789,176.697
						C42.809,338.343,83.862,368.668,129.911,371.864z"/>
					<path clip-path="url(#SVGID_2_)" fill="#B6B8FF" d="M129.931,371.183c91.833,6.37,168.839-97.893,171.993-232.869
						c1.578-67.492-15.612-129.886-44.672-176.2l1.288,6.549L-8.63,55.231l-6.739-34.22c-9.097,28.66-14.503,60.482-15.285,94.233
						c-1.578,67.486,15.609,129.872,44.672,176.189C43.077,337.751,84.011,367.992,129.931,371.183z"/>
					<path clip-path="url(#SVGID_2_)" fill="#B6B7FF" d="M129.945,370.484c91.578,6.364,168.366-97.608,171.506-232.199
						C303.027,70.983,285.89,8.763,256.917-37.42l1.218,6.219L-8.292,55.12l-6.649-33.809
						c-9.071,28.579-14.455,60.312-15.252,93.962c-1.564,67.302,15.573,129.525,44.546,175.708
						C43.337,337.164,84.158,367.311,129.945,370.484z"/>
					<path clip-path="url(#SVGID_2_)" fill="#B6B6FF" d="M129.965,369.808c91.318,6.337,167.889-97.339,171.022-231.558
						c1.573-67.112-15.52-129.157-44.417-175.217l1.162,5.901L-7.942,55.008l-6.571-33.396
						c-9.047,28.492-14.425,60.139-15.204,93.693c-1.576,67.11,15.52,129.151,44.417,175.211
						C43.597,336.571,84.295,366.64,129.965,369.808z"/>
					<path clip-path="url(#SVGID_2_)" fill="#B6B5FF" d="M129.976,369.126c91.064,6.32,167.422-97.06,170.551-230.904
						c1.563-66.931-15.48-128.796-44.291-174.723l1.084,5.563L-7.602,54.896l-6.496-32.99
						c-9.021,28.414-14.374,59.974-15.159,93.434c-1.563,66.919,15.48,128.782,44.291,174.714
						C43.856,335.979,84.443,365.964,129.976,369.126z"/>
					<path clip-path="url(#SVGID_2_)" fill="#B6B4FF" d="M129.986,368.438c90.811,6.304,166.959-96.791,170.076-230.256
						c1.551-66.729-15.438-128.424-44.174-174.216l1.028,5.222L-7.252,54.79l-6.418-32.588c-8.999,28.335-14.336,59.8-15.123,93.176
						c-1.551,66.718,15.438,128.408,44.174,174.211C44.113,335.387,84.583,365.287,129.986,368.438z"/>
					<path clip-path="url(#SVGID_2_)" fill="#B6B3FF" d="M130.009,367.757c90.545,6.275,166.478-96.518,169.573-229.603
						c1.565-66.545-15.383-128.067-44.04-173.725l0.964,4.889L-6.923,54.673l-6.328-32.175
						c-8.966,28.252-14.299,59.627-15.07,92.908c-1.548,66.54,15.392,128.062,44.037,173.725
						C44.373,334.795,84.731,364.611,130.009,367.757z"/>
					<path clip-path="url(#SVGID_2_)" fill="#B6B2FF" d="M130.028,367.07c90.285,6.264,165.992-96.245,169.091-228.944
						c1.553-66.361-15.342-127.704-43.915-173.244l0.899,4.571L-6.573,54.566l-6.25-31.772
						c-8.943,28.173-14.261,59.471-15.028,92.64c-1.554,66.35,15.344,127.698,43.914,173.232
						C44.636,334.202,84.879,363.936,130.028,367.07z"/>
					<path clip-path="url(#SVGID_2_)" fill="#B6B1FF" d="M130.04,366.383c90.039,6.247,165.53-95.965,168.617-228.295
						c1.554-66.16-15.302-127.335-43.797-172.736l0.83,4.23L-6.232,54.455l-6.166-31.361c-8.916,28.09-14.219,59.295-14.989,92.375
						c-1.543,66.163,15.302,127.329,43.797,172.741C44.893,333.604,85.027,363.259,130.04,366.383z"/>
					<path clip-path="url(#SVGID_2_)" fill="#B6B0FF" d="M130.054,365.701c89.782,6.225,165.062-95.697,168.14-227.647
						c1.543-65.975-15.263-126.969-43.671-172.244l0.763,3.906L-5.884,54.343l-6.096-30.956
						c-8.894,28.017-14.171,59.125-14.944,92.115c-1.543,65.972,15.263,126.96,43.668,172.239
						C45.152,333.018,85.167,362.583,130.054,365.701z"/>
					<path clip-path="url(#SVGID_2_)" fill="#B6AFFF" d="M130.073,365.014c89.52,6.208,164.581-95.417,167.648-226.993
						c1.539-65.786-15.216-126.603-43.543-171.75l0.707,3.579L-5.543,54.237l-6.009-30.554
						c-8.868,27.934-14.141,58.957-14.911,91.853c-1.528,65.782,15.224,126.603,43.554,171.746
						C45.413,332.431,85.313,361.907,130.073,365.014z"/>
					<path clip-path="url(#SVGID_2_)" fill="#B6AEFF" d="M130.085,364.32c89.268,6.197,164.11-95.138,167.176-226.328
						c1.525-65.598-15.174-126.245-43.42-171.258l0.64,3.247L-5.196,54.125l-5.937-30.144
						c-8.838,27.853-14.096,58.787-14.858,91.587c-1.525,65.595,15.174,126.24,43.417,171.249
						C45.673,331.839,85.452,361.23,130.085,364.32z"/>
					<path clip-path="url(#SVGID_2_)" fill="#B6ADFF" d="M130.107,363.639c89.002,6.175,163.63-94.864,166.689-225.686
						c1.525-65.405-15.135-125.871-43.3-170.752l0.572,2.911L-4.855,54.01l-5.853-29.732c-8.818,27.769-14.051,58.613-14.819,91.319
						c-1.525,65.411,15.132,125.871,43.292,170.758C45.93,331.246,85.608,360.549,130.107,363.639z"/>
					<path clip-path="url(#SVGID_2_)" fill="#B6ACFF" d="M130.118,362.952c88.748,6.157,163.161-94.591,166.207-225.027
						c1.522-65.215-15.085-125.513-43.166-170.269l0.511,2.59L-4.515,53.901l-5.767-29.325
						c-8.795,27.688-14.014,58.448-14.773,91.056c-1.523,65.218,15.084,125.511,43.162,170.263
						C46.192,330.654,85.737,359.873,130.118,362.952z"/>
					<path clip-path="url(#SVGID_2_)" fill="#B6ABFF" d="M130.138,362.27c88.488,6.142,162.684-94.321,165.712-224.378
						c1.531-65.031-15.031-125.144-43.037-169.774l0.453,2.254L-4.165,53.787l-5.697-28.914
						c-8.762,27.612-13.967,58.275-14.731,90.788C-27.623,245.72,41.644,356.135,130.138,362.27z"/>
					<path clip-path="url(#SVGID_2_)" fill="#B6AAFF" d="M130.148,361.583c88.237,6.118,162.215-94.043,165.249-223.725
						c1.509-64.835-15.012-124.781-42.923-169.277l0.38,1.928L-3.824,53.675l-5.61-28.506
						c-8.748,27.525-13.936,58.107-14.685,90.525C-27.156,245.373,41.917,355.458,130.148,361.583z"/>
					<path clip-path="url(#SVGID_2_)" fill="#B6A9FF" d="M130.171,360.901c87.978,6.096,161.731-93.775,164.757-223.071
						c1.506-64.651-14.956-124.42-42.797-168.788l0.311,1.595L-3.475,53.563l-5.544-28.101
						c-8.714,27.453-13.886,57.937-14.64,90.265C-26.673,245.021,42.194,354.794,130.171,360.901z"/>
					<path clip-path="url(#SVGID_2_)" fill="#B6A8FF" d="M130.19,360.208c87.707,6.08,161.256-93.495,164.266-222.408
						c1.503-64.467-14.914-124.058-42.66-168.293l0.243,1.263L-3.137,53.452l-5.454-27.69
						c-8.688,27.372-13.847,57.767-14.604,89.997C-26.203,244.681,42.468,354.129,130.19,360.208z"/>
					<path clip-path="url(#SVGID_2_)" fill="#B6A7FF" d="M130.205,359.532c87.449,6.063,160.792-93.222,163.787-221.769
						c1.503-64.271-14.872-123.689-42.543-167.796l0.188,0.933L-2.796,53.34l-5.367-27.282
						c-8.664,27.291-13.811,57.599-14.57,89.737C-25.729,244.334,42.744,353.452,130.205,359.532z"/>
					<path clip-path="url(#SVGID_2_)" fill="#B6A6FF" d="M130.213,358.839c87.209,6.052,160.326-92.941,163.318-221.112
						c1.488-64.078-14.828-123.32-42.417-167.296l0.12,0.598L-2.447,53.231l-5.297-26.877c-8.633,27.21-13.771,57.426-14.515,89.472
						C-25.251,243.987,43.019,352.793,130.213,358.839z"/>
					<path clip-path="url(#SVGID_2_)" fill="#B6A5FF" d="M130.235,358.151c86.943,6.029,159.837-92.662,162.823-220.452
						c1.495-63.894-14.777-122.962-42.291-166.807l0.056,0.273L-2.108,53.116L-7.319,26.65
						c-8.616,27.129-13.729,57.258-14.47,89.209C-24.775,243.646,43.283,352.122,130.235,358.151z"/>
					<path clip-path="url(#SVGID_2_)" fill="#B6A4FF" d="M130.247,357.47c86.688,6.007,159.375-92.394,162.348-219.807
						c1.486-63.695-14.735-122.594-42.165-166.315c-6.862-10.924-14.417-20.904-22.572-29.777l6.856,34.818L-1.766,53.007
						L-6.9,26.946c-8.583,27.051-13.682,57.096-14.425,88.941C-24.298,243.295,43.558,351.452,130.247,357.47z"/>
					<path clip-path="url(#SVGID_2_)" fill="#B6A3FF" d="M130.269,356.777c86.427,6.007,158.887-92.109,161.854-219.146
						c1.483-63.514-14.686-122.23-42.037-165.821c-6.837-10.896-14.372-20.845-22.508-29.688l6.767,34.382L-1.427,52.896
						l-5.046-25.65c-8.561,26.969-13.643,56.92-14.392,88.673C-23.82,242.942,43.834,350.787,130.269,356.777z"/>
					<path clip-path="url(#SVGID_2_)" fill="#B6A2FF" d="M130.288,356.101c86.165,5.974,158.418-91.841,161.371-218.5
						c1.483-63.332-14.646-121.87-41.92-165.323c-6.814-10.866-14.321-20.79-22.433-29.607l6.684,33.946L-1.078,52.79l-4.97-25.251
						c-8.533,26.889-13.612,56.75-14.342,88.416C-23.354,242.596,44.107,350.122,130.288,356.101z"/>
					<path clip-path="url(#SVGID_2_)" fill="#B6A1FF" d="M130.3,355.408c85.921,5.962,157.948-91.567,160.898-217.84
						c1.47-63.134-14.606-121.501-41.794-164.826c-6.798-10.838-14.285-20.728-22.377-29.518l6.605,33.516L-0.737,52.678
						L-5.629,27.84c-8.508,26.805-13.564,56.577-14.3,88.148C-22.876,242.255,44.385,349.451,130.3,355.408z"/>
					<path clip-path="url(#SVGID_2_)" fill="#B6A0FF" d="M130.311,354.727c85.656,5.945,157.479-91.294,160.415-217.189
						c1.467-62.941-14.556-121.141-41.659-164.34c-6.775-10.795-14.246-20.655-22.31-29.42l6.515,33.074L-0.391,52.566l-4.812-24.43
						c-8.484,26.727-13.524,56.409-14.263,87.885C-22.401,241.914,44.658,348.786,130.311,354.727z"/>
					<path clip-path="url(#SVGID_2_)" fill="#B69FFF" d="M130.325,354.045c85.398,5.917,157.006-91.02,159.937-216.542
						c1.467-62.757-14.517-120.772-41.539-163.84c-6.75-10.768-14.202-20.605-22.234-29.339l6.429,32.644L-0.05,52.454
						l-4.725-24.022c-8.463,26.648-13.486,56.241-14.218,87.617C-21.926,241.563,44.932,348.122,130.325,354.045z"/>
					<path clip-path="url(#SVGID_2_)" fill="#B69EFF" d="M130.345,353.357c85.146,5.906,156.528-90.74,159.456-215.885
						c1.453-62.566-14.478-120.412-41.425-163.345c-6.73-10.737-14.148-20.541-22.167-29.252l6.348,32.211L0.3,52.337l-4.658-23.608
						c-8.426,26.564-13.436,56.068-14.162,87.354C-21.448,241.222,45.209,347.451,130.345,353.357z"/>
					<path clip-path="url(#SVGID_2_)" fill="#B69DFF" d="M130.364,352.67c84.876,5.896,156.048-90.472,158.962-215.231
						c1.461-62.376-14.425-120.048-41.285-162.856c-6.711-10.701-14.115-20.468-22.104-29.16l6.253,31.778L0.641,52.231
						L-3.931,29.03c-8.412,26.48-13.405,55.9-14.137,87.086C-20.971,240.864,45.482,346.786,130.364,352.67z"/>
					<path clip-path="url(#SVGID_2_)" fill="#B69CFF" d="M130.378,351.988c84.628,5.867,155.576-90.198,158.484-214.577
						c1.453-62.198-14.386-119.685-41.171-162.362c-6.688-10.67-14.064-20.415-22.021-29.073l6.163,31.342L0.979,52.119
						l-4.49-22.798c-8.379,26.408-13.36,55.733-14.084,86.823C-20.495,240.528,45.748,346.115,130.378,351.988z"/>
					<path clip-path="url(#SVGID_2_)" fill="#B69BFF" d="M130.389,351.301c84.374,5.851,155.109-89.924,158.004-213.923
						C289.84,75.37,274.046,18.056,247.356-24.49c-6.672-10.639-14.025-20.348-21.966-28.984l6.085,30.909L1.319,52.007
						l-4.403-22.391c-8.356,26.324-13.321,55.56-14.039,86.566C-20.029,240.177,46.024,345.45,130.389,351.301z"/>
					<path clip-path="url(#SVGID_2_)" fill="#B69AFF" d="M130.408,350.614c84.105,5.845,154.629-89.656,157.521-213.276
						c1.437-61.807-14.296-118.947-40.919-161.364c-6.642-10.603-13.989-20.29-21.891-28.895l5.999,30.473L1.669,51.896
						l-4.325-21.982c-8.332,26.246-13.282,55.392-14.006,86.298C-19.551,239.83,46.298,344.774,130.408,350.614z"/>
					<path clip-path="url(#SVGID_2_)" fill="#B69AFF" d="M130.431,349.927c83.849,5.822,154.157-89.371,157.034-212.616
						c1.437-61.62-14.254-118.59-40.791-160.878c-6.632-10.572-13.938-20.222-21.834-28.805l5.92,30.04L2.01,51.784l-4.25-21.569
						c-8.307,26.159-13.231,55.219-13.958,86.035C-19.073,239.489,46.575,344.109,130.431,349.927z"/>
					<path clip-path="url(#SVGID_2_)" fill="#B69BFF" d="M130.518,346.021c82.376,5.705,151.455-87.813,154.279-208.894
						c1.411-60.544-14.006-116.509-40.072-158.051c-6.51-10.393-13.693-19.876-21.446-28.308l5.423,27.567L3.971,51.152
						L0.185,31.905c-8.16,25.704-13.005,54.254-13.724,84.518C-16.357,237.511,48.14,340.299,130.518,346.021z"/>
					<path clip-path="url(#SVGID_2_)" fill="#B79CFF" d="M130.602,342.104c80.917,5.604,148.759-86.242,151.536-205.162
						c1.386-59.457-13.752-114.427-39.355-155.235c-6.406-10.201-13.455-19.513-21.077-27.793l4.945,25.083L5.929,50.51
						l-3.33-16.909c-8.013,25.246-12.768,53.285-13.469,83.012C-13.642,235.533,49.695,336.488,130.602,342.104z"/>
					<path clip-path="url(#SVGID_2_)" fill="#B79EFF" d="M130.696,338.181c79.439,5.51,146.046-84.672,148.775-201.426
						c1.361-58.376-13.508-112.346-38.634-152.41c-6.289-10.011-13.215-19.161-20.694-27.294l4.459,22.608L7.888,49.878L5.024,35.3
						C-2.844,60.082-7.526,87.613-8.202,116.795C-10.932,233.55,51.26,332.671,130.696,338.181z"/>
					<path clip-path="url(#SVGID_2_)" fill="#B79FFF" d="M130.783,334.27c77.975,5.403,143.35-83.102,146.029-197.702
						c1.335-57.297-13.252-110.264-37.925-149.58c-6.175-9.837-12.97-18.809-20.306-26.785l3.961,20.125L9.849,49.247l-2.413-12.26
						c-7.72,24.329-12.302,51.349-12.979,79.995C-8.214,231.582,52.825,328.86,130.783,334.27z"/>
					<path clip-path="url(#SVGID_2_)" fill="#B8A0FF" d="M130.878,330.347c76.5,5.314,140.643-81.525,143.266-193.964
						c1.313-56.213-13.005-108.185-37.209-146.763c-6.049-9.642-12.718-18.451-19.915-26.28l3.473,17.652L11.818,48.61L9.86,38.683
						C2.277,62.551-2.224,89.06-2.874,117.167C-5.506,229.599,54.381,325.044,130.878,330.347z"/>
					<path clip-path="url(#SVGID_2_)" fill="#B8A1FF" d="M130.973,326.436c75.028,5.208,137.933-79.967,140.512-190.237
						c1.285-55.135-12.76-106.107-36.5-143.936c-5.937-9.463-12.472-18.104-19.537-25.777l2.986,15.174L13.769,47.976l-1.486-7.597
						C4.845,63.786,0.428,89.789-0.206,117.351C-2.788,227.621,55.948,321.233,130.973,326.436z"/>
					<path clip-path="url(#SVGID_2_)" fill="#B8A2FF" d="M131.06,322.529c73.559,5.091,135.233-78.402,137.757-186.509
						c1.263-54.051-12.503-104.028-35.773-141.125c-5.819-9.268-12.234-17.744-19.155-25.271l2.498,12.701L15.728,47.336
						l-1.031-5.27C7.407,65.016,3.088,90.507,2.451,117.541C-0.069,225.643,57.513,317.417,131.06,322.529z"/>
					<path clip-path="url(#SVGID_2_)" fill="#B9A3FF" d="M131.154,318.612c72.089,4.996,132.532-76.832,134.993-182.782
						c1.238-52.97-12.248-101.944-35.058-138.298c-11.407-18.177-25.134-33.197-40.528-43.984l6.87,34.916L17.688,46.705
						l-0.575-2.939C9.978,66.253,5.73,91.239,5.11,117.72C2.638,223.676,59.069,313.611,131.154,318.612z"/>
					<path clip-path="url(#SVGID_2_)" fill="#B9A4FF" d="M131.252,314.695c70.616,4.9,129.822-75.268,132.236-179.044
						c1.212-51.899-12-99.865-34.34-135.476c-11.176-17.808-24.631-32.527-39.713-43.093l6.298,31.935L19.658,46.067l-0.123-0.612
						C12.537,67.491,8.38,91.96,7.778,117.907C5.356,221.687,60.637,309.795,131.252,314.695z"/>
					<path clip-path="url(#SVGID_2_)" fill="#B9A6FF" d="M131.336,310.784c69.146,4.788,127.112-73.697,129.484-175.317
						c1.187-50.815-11.746-97.787-33.625-132.657c-10.936-17.437-24.117-31.845-38.872-42.194l5.697,28.954L38.78,39.865
						l-4.558-23.164c-4.729,9.474-8.848,19.667-12.273,30.454c-6.851,21.572-10.918,45.532-11.511,70.94
						C8.072,219.714,62.201,305.979,131.336,310.784z"/>
					<path clip-path="url(#SVGID_2_)" fill="#BAA7FF" d="M131.432,306.867c67.677,4.699,124.404-72.133,126.731-171.585
						c1.162-49.734-11.503-95.713-32.918-129.838C214.539-11.615,201.643-25.719,187.2-35.85l5.113,25.972L40.384,39.356
						l-4.007-20.317c-4.627,9.276-8.661,19.25-12.005,29.806c-6.703,21.116-10.689,44.563-11.266,69.434
						C10.782,217.73,63.758,302.168,131.432,306.867z"/>
					<path clip-path="url(#SVGID_2_)" fill="#BAA8FF" d="M131.518,302.95c66.208,4.593,121.711-70.558,123.978-167.858
						c1.137-48.647-11.249-93.626-32.194-127.005C212.826-8.609,200.212-22.4,186.077-32.313l4.526,22.994L41.977,38.837
						L38.545,21.38c-4.537,9.078-8.479,18.834-11.757,29.163c-6.56,20.646-10.454,43.59-11.021,67.919
						C13.498,215.764,65.313,298.356,131.518,302.95z"/>
					<path clip-path="url(#SVGID_2_)" fill="#BAA9FF" d="M131.613,299.033c64.727,4.492,119.006-68.999,121.222-164.123
						c1.104-47.566-11.008-91.542-31.484-124.192c-10.242-16.316-22.575-29.805-36.386-39.5l3.937,20.01L62.111,32.31L55.604-0.775
						c-21.94,29.699-36.066,71.856-37.17,119.422C16.217,213.779,66.878,294.546,131.613,299.033z"/>
					<path clip-path="url(#SVGID_2_)" fill="#BBAAFF" d="M131.699,295.121c63.266,4.381,116.3-67.422,118.468-160.397
						c1.089-46.485-10.754-89.461-30.759-121.367c-10.013-15.948-22.065-29.132-35.569-38.601l3.354,17.026L63.282,31.93
						L57.418,2.119C35.98,31.148,22.182,72.344,21.092,118.832C18.927,211.802,68.445,290.735,131.699,295.121z"/>
					<path clip-path="url(#SVGID_2_)" fill="#BBABFF" d="M131.786,291.204c61.796,4.292,113.603-65.857,115.721-156.67
						C248.563,89.133,237.002,47.157,217.456,16c-9.773-15.584-21.55-28.459-34.734-37.707l2.755,14.048L64.464,31.55L59.242,5.022
						C38.305,33.372,24.816,73.61,23.763,119.019C21.645,209.829,70.01,286.919,131.786,291.204z"/>
					<path clip-path="url(#SVGID_2_)" fill="#BBACFF" d="M131.89,287.287C192.207,291.479,242.771,223,244.839,134.36
						c1.039-44.328-10.251-85.306-29.336-115.724c-9.541-15.207-21.027-27.78-33.907-36.804l2.18,11.055L65.638,31.165L61.059,7.917
						c-20.438,27.679-33.6,66.961-34.639,111.29C24.35,207.851,71.574,283.102,131.89,287.287z"/>
					<path clip-path="url(#SVGID_2_)" fill="#BCADFF" d="M131.976,283.376c58.849,4.073,108.187-62.724,110.206-149.206
						c2.018-86.488-44.046-159.912-102.892-163.985l6.862,34.896L66.812,30.788L62.88,10.819
						c-19.945,27-32.778,65.324-33.792,108.565C27.067,205.867,73.131,279.291,131.976,283.376z"/>
					<path clip-path="url(#SVGID_2_)" fill="#BCAFFF" d="M132.071,279.459c57.378,3.979,105.481-61.147,107.45-145.473
						c1.962-84.328-42.953-155.911-100.326-159.889l6.152,31.244L67.981,30.41l-3.285-16.693
						c-19.435,26.324-31.968,63.692-32.948,105.85C29.778,203.895,74.695,275.475,132.071,279.459z"/>
					<path clip-path="url(#SVGID_2_)" fill="#BCB0FF" d="M132.16,275.553c55.903,3.872,102.771-59.6,104.693-141.754
						c1.92-82.16-41.847-151.907-97.744-155.788l5.423,27.595L69.155,30.03L66.521,16.62
						C47.575,42.268,35.371,78.672,34.407,119.756C32.493,201.917,76.263,271.664,132.16,275.553z"/>
					<path clip-path="url(#SVGID_2_)" fill="#BDB1FF" d="M132.256,271.63c54.434,3.783,100.066-58.018,101.93-138.019
						c1.869-79.995-40.735-147.909-95.172-151.687l4.714,23.938L70.326,29.647l-1.992-10.13
						C49.892,44.492,38.015,79.94,37.075,119.941C35.212,199.938,77.819,267.853,132.256,271.63z"/>
					<path clip-path="url(#SVGID_2_)" fill="#BDB2FF" d="M132.339,267.713c52.965,3.677,97.376-56.447,99.187-134.286
						c1.813-77.838-39.643-143.917-92.598-147.588l3.986,20.289L71.508,29.271l-1.35-6.859
						c-17.951,24.304-29.509,58.797-30.414,97.714C37.922,197.961,79.387,264.036,132.339,267.713z"/>
					<path clip-path="url(#SVGID_2_)" fill="#BDB3FF" d="M132.435,263.802c51.494,3.576,94.66-54.884,96.432-130.559
						c1.766-75.67-38.548-139.918-90.034-143.489l3.274,16.635L72.681,28.885l-0.706-3.57C54.523,48.939,43.283,82.472,42.4,120.307
						C40.638,195.982,80.939,260.231,132.435,263.802z"/>
					<path clip-path="url(#SVGID_2_)" fill="#BEB4FF" d="M132.521,259.885c50.025,3.476,91.953-53.313,93.678-126.824
						c1.718-73.51-37.444-135.923-87.461-139.391C88.724-9.802,46.784,46.981,45.069,120.491
						C43.356,194.01,82.507,256.409,132.521,259.885z"/>
					<path clip-path="url(#SVGID_2_)" fill="#BEB5FF" d="M132.616,255.962c48.555,3.369,89.257-51.731,90.922-123.085
						C225.195,61.523,187.197,0.954,138.65-2.418c-48.544-3.37-89.257,51.743-90.91,123.099
						C46.072,192.026,84.072,252.604,132.616,255.962z"/>
					<path clip-path="url(#SVGID_2_)" fill="#BEB6FF" d="M132.702,252.056c47.086,3.264,86.553-50.173,88.171-119.366
						c1.606-69.188-35.24-127.921-82.317-131.193c-47.074-3.26-86.544,50.182-88.159,119.367
						C48.782,190.048,85.628,248.793,132.702,252.056z"/>
					<path clip-path="url(#SVGID_2_)" fill="#BFB7FF" d="M132.8,248.145c45.613,3.169,83.846-48.613,85.401-115.645
						C219.77,65.482,184.065,8.576,138.469,5.416C92.864,2.248,54.624,54.024,53.057,121.05
						C51.501,188.073,87.195,244.977,132.8,248.145z"/>
					<path clip-path="url(#SVGID_2_)" fill="#BFB8FF" d="M132.893,244.222c44.135,3.063,81.132-47.043,82.649-111.896
						c1.52-64.869-33.032-119.937-77.168-122.993C94.239,6.268,57.242,56.371,55.725,121.234
						C54.208,186.098,88.76,241.16,132.893,244.222z"/>
					<path clip-path="url(#SVGID_2_)" fill="#BFB9FF" d="M132.979,240.311c42.662,2.962,78.436-45.468,79.897-108.174
						c1.464-62.704-31.933-115.936-74.587-118.895c-42.665-2.958-78.438,45.477-79.905,108.177
						C56.927,184.117,90.324,237.349,132.979,240.311z"/>
					<path clip-path="url(#SVGID_2_)" fill="#C0BAFF" d="M133.074,236.399c41.193,2.855,75.724-43.906,77.143-104.453
						c1.419-60.533-30.831-111.932-72.024-114.785c-41.193-2.861-75.731,43.901-77.14,104.442
						C59.642,182.136,91.881,233.532,133.074,236.399z"/>
					<path clip-path="url(#SVGID_2_)" fill="#C0BCFF" d="M133.169,232.477c39.716,2.761,73.017-42.328,74.38-100.706
						c1.369-58.384-29.728-107.937-69.451-110.7C98.382,18.318,65.082,63.403,63.71,121.788
						C62.352,180.164,93.445,229.728,133.169,232.477z"/>
					<path clip-path="url(#SVGID_2_)" fill="#C0BDFF" d="M133.256,228.57c38.254,2.649,70.322-40.771,71.633-96.99
						c1.311-56.216-28.635-103.942-66.878-106.59c-38.251-2.654-70.319,40.763-71.633,96.985
						C65.06,178.197,95.013,225.911,133.256,228.57z"/>
					<path clip-path="url(#SVGID_2_)" fill="#C1BEFF" d="M133.351,224.648c36.776,2.553,67.61-39.199,68.87-93.25
						c1.26-54.054-27.523-99.944-64.305-102.495c-36.782-2.551-67.615,39.201-68.875,93.255
						C67.777,176.208,96.569,222.095,133.351,224.648z"/>
					<path clip-path="url(#SVGID_2_)" fill="#C1BFFF" d="M133.438,220.73c35.312,2.453,64.913-37.62,66.126-89.516
						c1.21-51.888-26.431-95.948-61.742-98.396c-35.304-2.448-64.902,37.628-66.115,89.528
						C70.493,174.235,98.134,218.289,133.438,220.73z"/>
					<path clip-path="url(#SVGID_2_)" fill="#C1C0FF" d="M133.532,216.819c33.834,2.353,62.209-36.069,63.36-85.79
						c1.165-49.734-25.315-91.947-59.158-94.3c-33.831-2.344-62.206,36.069-63.368,85.801
						C73.212,172.26,99.701,214.479,133.532,216.819z"/>
					<path clip-path="url(#SVGID_2_)" fill="#C2C1FF" d="M133.619,212.902c32.373,2.246,59.51-34.493,60.613-82.06
						c1.106-47.566-24.22-87.946-56.593-90.19c-32.362-2.246-59.494,34.491-60.605,82.063
						C75.922,170.284,101.257,210.662,133.619,212.902z"/>
					<path clip-path="url(#SVGID_2_)" fill="#C2C2FF" d="M133.714,208.985c30.895,2.146,56.797-32.918,57.862-78.324
						c1.053-45.406-23.131-83.957-54.023-86.103c-30.893-2.134-56.797,32.932-57.851,78.338
						C78.638,168.303,102.821,206.856,133.714,208.985z"/>
					<path clip-path="url(#SVGID_2_)" fill="#C2C3FF" d="M133.801,205.074c29.431,2.039,54.093-31.356,55.106-74.603
						c1.006-43.238-22.027-79.953-51.449-81.993c-29.423-2.037-54.09,31.356-55.107,74.6
						C81.348,166.322,104.389,203.034,133.801,205.074z"/>
					<path clip-path="url(#SVGID_2_)" fill="#C2C4FF" d="M133.896,201.162c27.953,1.934,51.389-29.794,52.344-70.875
						c0.964-41.082-20.915-75.955-48.868-77.899c-27.95-1.934-51.386,29.794-52.35,70.875
						C84.066,164.35,105.942,199.218,133.896,201.162z"/>
					<path clip-path="url(#SVGID_2_)" fill="#C3C5FF" d="M133.99,197.251c26.483,1.833,48.684-28.224,49.589-67.148
						c0.908-38.914-19.819-71.96-46.303-73.792c-26.48-1.838-48.682,28.224-49.587,67.143
						C86.782,162.372,107.51,195.413,133.99,197.251z"/>
					<path clip-path="url(#SVGID_2_)" fill="#C3C6FF" d="M134.077,193.334c25.011,1.727,45.979-26.665,46.846-63.413
						c0.846-36.754-18.73-67.964-43.733-69.694c-25.011-1.741-45.984,26.656-46.843,63.41
						C89.5,160.391,109.066,191.594,134.077,193.334z"/>
					<path clip-path="url(#SVGID_2_)" fill="#C3C7FF" d="M134.164,189.417c23.541,1.632,43.28-25.084,44.087-59.678
						c0.811-34.6-17.623-63.964-41.156-65.601c-23.542-1.637-43.272,25.089-44.08,59.681
						C92.208,158.41,110.631,187.791,134.164,189.417z"/>
					<path clip-path="url(#SVGID_2_)" fill="#C4C8FF" d="M134.267,185.494c22.063,1.534,40.56-23.513,41.328-55.948
						c0.757-32.429-16.523-59.965-38.587-61.494c-22.069-1.531-40.576,23.519-41.324,55.953
						C94.926,156.44,112.195,183.969,134.267,185.494z"/>
					<path clip-path="url(#SVGID_2_)" fill="#C4C8FF" d="M134.354,181.591c20.594,1.422,37.863-21.955,38.573-52.221
						c0.706-30.274-15.42-55.976-36.022-57.4c-20.591-1.428-37.852,21.949-38.562,52.221
						C97.634,154.454,113.754,180.164,134.354,181.591z"/>
					<path clip-path="url(#SVGID_2_)" fill="#C4C9FF" d="M134.44,177.671c19.133,1.321,35.167-20.384,35.817-48.491
						c0.659-28.112-14.318-51.972-33.439-53.296c-19.122-1.327-35.156,20.384-35.815,48.491
						C100.352,152.481,115.318,176.341,134.44,177.671z"/>
					<path clip-path="url(#SVGID_2_)" fill="#C4CAFF" d="M134.535,173.754c17.652,1.224,32.451-18.814,33.063-44.755
						c0.601-25.947-13.216-47.98-30.876-49.204c-17.651-1.224-32.451,18.82-33.052,44.764
						C103.06,150.509,116.884,172.531,134.535,173.754z"/>
					<path clip-path="url(#SVGID_2_)" fill="#C5CBFF" d="M134.63,169.84c16.183,1.121,29.75-17.247,30.3-41.031
						c0.56-23.779-12.111-43.973-28.293-45.093c-16.183-1.121-29.747,17.247-30.306,41.028
						C105.777,148.531,118.451,168.717,134.63,169.84z"/>
					<path clip-path="url(#SVGID_2_)" fill="#C5CCFF" d="M134.717,165.926c14.713,1.022,27.051-15.679,27.554-37.304
						c0.503-21.619-11.008-39.97-25.729-40.992c-14.701-1.028-27.039,15.674-27.542,37.301
						C108.496,146.547,120.007,164.915,134.717,165.926z"/>
					<path clip-path="url(#SVGID_2_)" fill="#C5CDFF" d="M134.812,162.009c13.243,0.922,24.338-14.115,24.791-33.566
						c0.452-19.462-9.907-35.985-23.147-36.899c-13.24-0.919-24.347,14.112-24.799,33.574
						C111.203,144.575,121.571,161.095,134.812,162.009z"/>
					<path clip-path="url(#SVGID_2_)" fill="#C5CEFF" d="M134.898,158.097c11.771,0.819,21.642-12.544,22.044-29.844
						c0.405-17.292-8.812-31.979-20.583-32.8c-11.762-0.811-21.63,12.553-22.035,29.85
						C113.922,142.594,123.136,157.276,134.898,158.097z"/>
					<path clip-path="url(#SVGID_2_)" fill="#C6CFFF" d="M134.993,154.183c10.302,0.718,18.938-10.98,19.281-26.109
						c0.354-15.138-7.709-27.99-18.001-28.699c-10.302-0.715-18.935,10.972-19.289,26.112
						C116.629,140.624,124.703,153.465,134.993,154.183z"/>
					<path clip-path="url(#SVGID_2_)" fill="#C6D0FF" d="M135.08,150.269c8.829,0.609,16.229-9.407,16.534-22.385
						c0.308-12.972-6.604-23.982-15.428-24.595c-8.829-0.617-16.229,9.399-16.534,22.376
						C119.348,138.641,126.26,149.657,135.08,150.269z"/>
					<path clip-path="url(#SVGID_2_)" fill="#C6D0FF" d="M135.175,146.354c7.359,0.506,13.525-7.842,13.774-18.652
						c0.254-10.81-5.507-19.988-12.857-20.502c-7.359-0.511-13.525,7.843-13.78,18.652
						C122.063,136.663,127.816,145.837,135.175,146.354z"/>
					<path clip-path="url(#SVGID_2_)" fill="#C6D1FF" d="M135.271,142.435c5.881,0.411,10.812-6.27,11.019-14.919
						c0.198-8.647-4.403-15.992-10.293-16.397c-5.881-0.405-10.817,6.272-11.016,14.925
						C124.782,134.685,129.381,142.035,135.271,142.435z"/>
					<path clip-path="url(#SVGID_2_)" fill="#C7D2FF" d="M135.356,138.518c4.42,0.313,8.116-4.699,8.273-11.187
						c0.147-6.482-3.309-11.995-7.72-12.299c-4.42-0.302-8.114,4.705-8.271,11.198C127.489,132.717,130.945,138.213,135.356,138.518
						z"/>
					<path clip-path="url(#SVGID_2_)" fill="#C7D2FF" d="M135.452,134.606c2.941,0.209,5.411-3.135,5.509-7.459
						c0.101-4.325-2.207-7.996-5.146-8.197c-2.938-0.207-5.408,3.135-5.509,7.459C130.199,130.728,132.513,134.399,135.452,134.606z
						"/>
					<path clip-path="url(#SVGID_2_)" fill="#C7D3FF" d="M135.538,130.7c1.47,0.095,2.716-1.579,2.755-3.738
						c0.059-2.168-1.093-4.001-2.573-4.102c-1.47-0.101-2.696,1.57-2.746,3.727C132.918,128.756,134.068,130.588,135.538,130.7z"/>
				</g>
			</g>
			
				<linearGradient id="SVGID_3_" gradientUnits="userSpaceOnUse" x1="566.2646" y1="361.8584" x2="566.2646" y2="164.8125" gradientTransform="matrix(-0.9993 -0.0364 -0.0364 0.9993 758.2627 -24.4414)">
				<stop  offset="0" style="stop-color:#030D14"/>
				<stop  offset="1" style="stop-color:#0B2F45"/>
			</linearGradient>
			<path fill-rule="evenodd" clip-rule="evenodd" fill="url(#SVGID_3_)" d="M304.969,141.748
				c46.496,32.09-47.068,199.959-142.313,171.769C60.899,283.398,46.729,156.963,54.034,141.63
				C61.338,126.306,247.736,102.236,304.969,141.748z"/>
			
				<radialGradient id="SVGID_4_" cx="610.9287" cy="118.1992" r="30.246" gradientTransform="matrix(-1.0054 -0.0328 -0.0029 1.1103 662.5156 -60.7109)" gradientUnits="userSpaceOnUse">
				<stop  offset="0" style="stop-color:#C7D3FF"/>
				<stop  offset="0.3836" style="stop-color:#C1C0FF"/>
				<stop  offset="1" style="stop-color:#B69AFF"/>
			</radialGradient>
			<path fill-rule="evenodd" clip-rule="evenodd" fill="url(#SVGID_4_)" d="M7.32,64.873c0,0,20.859-52.059,81.225-18.92
				C88.545,45.953,38.579,52.457,7.32,64.873z"/>
			
				<radialGradient id="SVGID_5_" cx="315.8213" cy="111.1362" r="40.262" gradientTransform="matrix(-1.0054 -0.0328 -0.0029 1.1103 662.5156 -60.7109)" gradientUnits="userSpaceOnUse">
				<stop  offset="0" style="stop-color:#C7D3FF"/>
				<stop  offset="0.3836" style="stop-color:#C1C0FF"/>
				<stop  offset="1" style="stop-color:#B69AFF"/>
			</radialGradient>
			<path fill-rule="evenodd" clip-rule="evenodd" fill="url(#SVGID_5_)" d="M372.68,64.636c0,0-20.265-53.556-111.58-17.336
				L372.68,64.636z"/>
			
				<linearGradient id="SVGID_6_" gradientUnits="userSpaceOnUse" x1="551.9258" y1="92.6919" x2="551.9258" y2="33.1577" gradientTransform="matrix(-1.1565 0.091 0.0831 1.0565 811.916 -52.2744)">
				<stop  offset="0" style="stop-color:#D4BFFF"/>
				<stop  offset="0.9905" style="stop-color:#C2ACFF"/>
				<stop  offset="1" style="stop-color:#C2ACFF"/>
			</linearGradient>
			<path fill-rule="evenodd" clip-rule="evenodd" fill="url(#SVGID_6_)" d="M292.514,41.542c0,0-91.014,62.852-156.025,56.244
				c-65-6.607-74.502-50.983-74.502-50.983S104.054,26.482,292.514,41.542z"/>
			<g>
				<path fill="#B6DEFF" d="M291.357,41.687c-0.031,0-0.059-0.005-0.087-0.005c-17.501,10.985-94.222,57.104-148.013,56.512
					c-60.457-0.657-78.743-37.76-80.333-47.661l-1.112,0.307c1.635,10.108,20.189,48.019,81.387,48.687
					c14.892,0.162,31.521-3.235,48.181-8.471c46.329-14.562,92.791-43.364,102.305-49.418
					C292.908,41.659,292.134,41.662,291.357,41.687z"/>
			</g>
			<path fill-rule="evenodd" clip-rule="evenodd" fill="#FFFFFF" d="M114.836,95.072c0,0-31.468-6.306-46.991-32.568
				C67.845,62.504,88.606,86.344,114.836,95.072z"/>
			<path opacity="0.7" fill-rule="evenodd" clip-rule="evenodd" fill="#FFFFFF" d="M187.359,93.977c0,0-55.668,25.081-85.487,2.302
				C101.872,96.279,127.612,108.262,187.359,93.977z"/>
		</g>
		<g>
			
				<radialGradient id="SVGID_7_" cx="138.3032" cy="162.168" r="26.1219" gradientTransform="matrix(-0.4702 -0.3987 -0.7602 0.8966 418.1406 103.1624)" gradientUnits="userSpaceOnUse">
				<stop  offset="0" style="stop-color:#D5FFFF"/>
				<stop  offset="0.254" style="stop-color:#D2FFFF"/>
				<stop  offset="0.4316" style="stop-color:#C9FFFF"/>
				<stop  offset="0.4692" style="stop-color:#C6FFFF"/>
				<stop  offset="1" style="stop-color:#56D7FF"/>
			</radialGradient>
			<path fill="url(#SVGID_7_)" d="M206.585,190.5c18.557-22.286,65.98-14.179,39.673,13.777
				C233.16,218.201,193.747,205.94,206.585,190.5z"/>
		</g>
		<g>
			
				<radialGradient id="SVGID_8_" cx="80.4409" cy="136.4375" r="26.1227" gradientTransform="matrix(0.4702 -0.3987 0.7602 0.8966 -4.8516 103.1624)" gradientUnits="userSpaceOnUse">
				<stop  offset="0" style="stop-color:#D5FFFF"/>
				<stop  offset="0.254" style="stop-color:#D2FFFF"/>
				<stop  offset="0.4316" style="stop-color:#C9FFFF"/>
				<stop  offset="0.4692" style="stop-color:#C6FFFF"/>
				<stop  offset="1" style="stop-color:#56D7FF"/>
			</radialGradient>
			<path fill="url(#SVGID_8_)" d="M159.938,190.5c-18.558-22.286-65.98-14.179-39.674,13.777
				C133.362,218.201,172.775,205.94,159.938,190.5z"/>
		</g>
	</g>
</g>
</svg>
